<svg xmlns="http://www.w3.org/2000/svg" viewBox="0 0 800 429" width="760" height="408">
  <defs>
    <linearGradient id="bg" x1="0%" y1="0%" x2="100%" y2="100%">
      <stop offset="0%" style="stop-color:#0f1117;stop-opacity:1" />
      <stop offset="100%" style="stop-color:#1a1d2e;stop-opacity:1" />
    </linearGradient>
    <linearGradient id="accent" x1="0%" y1="0%" x2="100%" y2="0%">
      <stop offset="0%" style="stop-color:#6366f1;stop-opacity:1" />
      <stop offset="100%" style="stop-color:#8b5cf6;stop-opacity:1" />
    </linearGradient>
    <filter id="glow">
      <feGaussianBlur stdDeviation="3" result="coloredBlur"/>
      <feMerge><feMergeNode in="coloredBlur"/><feMergeNode in="SourceGraphic"/></feMerge>
    </filter>
    <filter id="cardShadow" x="-4%" y="-4%" width="108%" height="108%">
      <feFlood flood-color="#6366f1" flood-opacity="0.5" result="color"/>
      <feComposite in="color" in2="SourceAlpha" operator="in" result="shadowBase"/>
      <feGaussianBlur in="shadowBase" stdDeviation="8" result="shadowBlur"/>
      <feMerge>
        <feMergeNode in="shadowBlur"/>
        <feMergeNode in="SourceGraphic"/>
      </feMerge>
    </filter>
  </defs>

  <rect x="20" y="20" width="760" height="389" rx="10" fill="url(#bg)"
        stroke="url(#accent)" stroke-width="1.5" filter="url(#cardShadow)"/>

  <!-- Music icon circle -->
  <circle cx="88" cy="82" r="30" fill="#1e2035" stroke="#6366f1" stroke-width="1"/>
  <text x="88" y="94" text-anchor="middle" font-size="38" fill="#8b5cf6" filter="url(#glow)">&#9834;</text>

  <!-- Title -->
  <text x="132" y="80" font-family="'Segoe UI', system-ui, sans-serif" font-size="28" font-weight="700" fill="#f1f5f9">StreamMusic</text>
  <text x="132" y="104" font-family="'Segoe UI', system-ui, sans-serif" font-size="13" fill="#64748b">DDD · Strategy Pattern · SOLID · Spring Boot</text>

  <!-- Divider -->
  <line x1="60" y1="130" x2="740" y2="130" stroke="#1e2035" stroke-width="1"/>

  <!-- STACK label (gap 30px desde divider) -->
  <text x="60" y="160" font-family="'Segoe UI', system-ui, sans-serif" font-size="11" font-weight="600" fill="#64748b" letter-spacing="2">STACK</text>

  <!-- STACK icon tiles: 6 items × 46px wide × 44px tall, 10px gap, centered in 680px -->
  <!-- x positions: 237, 293, 349, 405, 461, 517 — centers: 260, 316, 372, 428, 484, 540 -->

  <!-- Java (skillicons.dev — cup + flame) -->
  <rect x="237" y="170" width="46" height="44" rx="7" fill="#1e2035" stroke="#f97316" stroke-width="1"/>
  <svg x="247" y="173" width="26" height="26" viewBox="0 0 256 256">
    <path fill="#ffffff" d="M101.634 182.619C101.634 182.619 93.9548 187.293 106.979 188.63C122.707 190.634 131.023 190.299 148.386 186.962C148.386 186.962 153.06 189.971 159.406 192.306C120.331 209.002 70.9089 191.304 101.634 182.619ZM96.6252 160.914C96.6252 160.914 88.2753 167.26 101.299 168.593C118.327 170.262 131.69 170.597 154.732 165.926C154.732 165.926 157.741 169.267 162.747 170.936C115.664 184.961 62.8975 172.269 96.6252 160.917V160.914ZM188.795 198.984C188.795 198.984 194.471 203.658 182.449 207.334C160.073 214.012 88.6104 216.019 68.5735 207.334C61.564 204.325 74.9197 199.982 79.2587 199.319C83.6012 198.317 85.9366 198.317 85.9366 198.317C78.2569 192.973 34.8424 209.337 63.8959 214.046C143.709 227.073 209.499 208.37 188.792 199.018L188.795 198.984ZM105.307 138.203C105.307 138.203 68.9052 146.888 92.2793 149.89C102.298 151.223 122 150.892 140.368 149.555C155.396 148.221 170.458 145.548 170.458 145.548C170.458 145.548 165.113 147.886 161.441 150.222C124.342 159.915 53.2107 155.573 73.5827 145.554C90.9526 137.204 105.307 138.203 105.307 138.203V138.203ZM170.423 174.604C207.83 155.234 190.46 136.534 178.438 138.873C175.429 139.54 174.096 140.207 174.096 140.207C174.096 140.207 175.097 138.203 177.436 137.54C201.145 129.19 219.849 162.586 169.757 175.61C169.757 175.61 170.092 175.275 170.423 174.608V174.604ZM108.979 227.364C145.046 229.703 200.147 226.03 201.484 208.995C201.484 208.995 198.817 215.673 171.764 220.683C141.042 226.359 102.968 225.692 80.5957 222.016C80.5957 222.016 85.2698 226.023 108.982 227.36L108.979 227.364Z"/>
    <path fill="#F58219" d="M147.685 28C147.685 28 168.389 49.0388 127.983 80.7594C95.5891 106.472 120.632 121.168 127.983 137.861C108.948 120.833 95.2609 105.802 104.606 91.7762C118.331 71.0828 156.062 61.0644 147.685 28ZM137 123.842C146.683 134.862 134.333 144.881 134.333 144.881C134.333 144.881 159.044 132.195 147.692 116.494C137.338 101.466 129.324 94.1184 172.738 69.0689C172.738 69.0689 104.278 86.0968 137.007 123.835L137 123.842Z"/>
  </svg>
  <text x="260" y="207" text-anchor="middle" font-family="'Segoe UI', system-ui, sans-serif" font-size="8.5" font-weight="600" fill="#f97316">Java</text>

  <!-- Spring Boot (Simple Icons) -->
  <rect x="293" y="170" width="46" height="44" rx="7" fill="#1e2035" stroke="#4ade80" stroke-width="1"/>
  <svg x="303" y="173" width="26" height="26" viewBox="0 0 24 24">
    <path fill="#4ade80" d="M21.8537 1.4158a10.4504 10.4504 0 0 1-1.284 2.2471A11.9666 11.9666 0 1 0 3.8518 20.7757l.4445.3951a11.9543 11.9543 0 0 0 19.6316-8.2971c.3457-3.0126-.568-6.8649-2.0743-11.458zM5.5805 20.8745a1.0174 1.0174 0 1 1-.1482-1.4323 1.0396 1.0396 0 0 1 .1482 1.4323zm16.1991-3.5806c-2.9385 3.9263-9.2601 2.5928-13.2852 2.7904 0 0-.7161.0494-1.4323.1481 0 0 .2717-.1234.6174-.2469 2.8398-.9877 4.1732-1.1853 5.9018-2.0743 3.2349-1.6545 6.4698-5.2844 7.1118-9.0379-1.2347 3.6053-4.9881 6.7167-8.3959 7.9761-2.3459.8643-6.5685 1.7039-6.5685 1.7039l-.1729-.0988c-2.8645-1.4076-2.9632-7.6304 2.2718-9.6306 2.2966-.889 4.4696-.395 6.9637-.9877 2.6422-.6174 5.7043-2.5929 6.939-5.1857 1.3828 4.1732 3.062 10.643.0493 14.6434z"/>
  </svg>
  <text x="316" y="207" text-anchor="middle" font-family="'Segoe UI', system-ui, sans-serif" font-size="8.5" font-weight="600" fill="#4ade80">Spring</text>

  <!-- Apache Maven (Simple Icons — apachemaven) -->
  <rect x="349" y="170" width="46" height="44" rx="7" fill="#1e2035" stroke="#fb923c" stroke-width="1"/>
  <svg x="359" y="173" width="26" height="26" viewBox="0 0 24 24">
    <path fill="#fb923c" d="M4.237.001c-.312-.013-.665.072-.828.457-.158.374-.283 1.188-.34 2.276l1.223.591c-.02-.737.007-1.43.076-2.066-.026.299-.056.96.006 2.039.019.342.049.725.088 1.15.002.024.002.047.007.069a45.485 45.485 0 0 0 .309 2.412c.057.368.126.752.195 1.16l-.01.01c.014.01.015.018.014.023l.03.16c.03.162.06.328.093.494l.108.553.056.289a61.72 61.72 0 0 0 .457 2.068c.09.382.186.78.287 1.186.098.386.199.783.309 1.193.096.362.199.735.303 1.117.003.018.012.036.015.055a145.826 145.826 0 0 0 .34 1.185l.049.174c.078.261.158.533.242.805a4.2 4.2 0 0 1-.293-.135l-.19-.654c-.02-.077-.042-.148-.062-.225l-.002-.004-.004-.002c-.087-.3-.17-.607-.257-.916-.023-.087-.044-.173-.069-.263l-.314-1.178c-.1-.381-.194-.765-.29-1.154-.094-.39-.185-.78-.277-1.172-.093-.401-.181-.8-.265-1.203-.085-.396-.161-.798-.24-1.193a50.315 50.315 0 0 1-.211-1.17c-.004-.013-.006-.03-.01-.041l.004-.002c-.057-.386-.116-.77-.174-1.15a60.905 60.905 0 0 1-.154-1.204 27.447 27.447 0 0 1-.172-2.41l-1.22-.59c-.004.074-.01.15-.013.23-.012.294-.02.605-.023.93a45.3 45.3 0 0 0 .006 1.157c.009.37.025.755.045 1.148.02.336.042.675.07 1.022l.002.039.006.004c.003.023.007.05.006.076.033.368.064.739.107 1.115a34.493 34.493 0 0 0 .303 2.125c.01.064.024.131.035.195a23.418 23.418 0 0 0 .547 2.32c.07.237.14.464.21.68.063.182.13.365.194.545.155.422.327.832.512 1.232l.006.004a.318.318 0 0 0 .02.05c.225.485.475.95.755 1.395.01.013.02.033.03.047-.455-.183-1.259-.098-1.253-.097.83.288 1.557.64 2.016 1.175-.183.2-.523.352-.953.477.594.064.924-.039 1.045-.092-.31.26-.483.732-.635 1.24.35-.57.696-.949 1.033-1.094.078.258.162.524.244.788A147.532 147.532 0 0 0 5.157 24a.56.56 0 0 0 .43-.312c.13-.282.83-1.775 1.908-3.875.413 1.303.88 2.679 1.386 4.109a.494.494 0 0 0 .076-.465 103.735 103.735 0 0 1-1.308-3.945c.154-.299.316-.612.484-.932.125.04.255.094.389.155.203.186.352.491.482.84a1.515 1.515 0 0 0-.334-1.098c1.335.258 2.547.09 3.287-.81a3.97 3.97 0 0 0 .192-.258c-.325.304-.682.404-1.313.273.996-.281 1.523-.617 2.035-1.22.12-.145.244-.303.371-.48-.943.722-1.927.822-2.9.493l-.045-.018c.914.02 2.203-.474 3.092-1.189.41-.33.796-.73 1.17-1.21.28-.359.55-.76.82-1.216.234-.393.468-.824.7-1.293a2.83 2.83 0 0 1-.74.137l-.144.008c-.048.002-.093 0-.146.002.885-.198 1.5-.74 1.994-1.447-.24.117-.628.262-1.07.297-.058.006-.12.006-.182.006-.013-.002-.028 0-.047-.002.306-.078.574-.178.81-.309a3.363 3.363 0 0 0 .358-.236c.044-.037.088-.07.13-.106.099-.086.193-.18.28-.287.028-.034.056-.063.08-.098.036-.05.073-.098.104-.146a8.388 8.388 0 0 0 .51-.828c.015-.031.032-.057.046-.088.04-.084.08-.16.11-.227.042-.099.074-.179.092-.238a.515.515 0 0 1-.108.051c-.273.112-.727.187-1.086.201-.004 0-.008 0-.013.004h-.067c.72-.214 1.067-.45 1.422-.818a13.883 13.883 0 0 0 1.154-1.428c.264-.37.505-.738.692-1.072a6.5 6.5 0 0 0 .298-.592c.066-.157.122-.305.172-.45-.466.01-.986.011-1.48 0 .495.01 1.015.007 1.484-.005.5-1.485.063-2.262.063-2.262s-.526-1.212-1.4-.851c-.426.175-1.172.73-2.083 1.56l.514 1.45a17.561 17.561 0 0 1 1.703-1.602c-.257.22-.807.726-1.615 1.644-.256.29-.537.624-.844.997-.017.02-.035.038-.047.06a51.435 51.435 0 0 0-1.666 2.187c-.248.34-.498.704-.765 1.088h-.016c.002.02-.004.028-.01.032l-.101.152c-.104.155-.213.31-.318.47l-.352.534c-.061.09-.124.181-.186.277-.184.282-.367.573-.558.873a97.351 97.351 0 0 0-1.428 2.338 96.866 96.866 0 0 0-1.341 2.343c-.012.017-.02.04-.034.057a197.256 197.256 0 0 0-.668 1.223l-.097.181c-.17.318-.346.642-.52.979 0 .004-.005.008-.006.013-.026.048-.05.093-.072.141-.117.222-.218.424-.45.87a1.352 1.352 0 0 0-.233-.182l.345-.65c.047-.089.096-.177.143-.27l.04-.077.546-1.001.13-.233v-.006l-.001-.006c.169-.31.345-.62.52-.94.051-.087.102-.173.153-.265.224-.395.454-.794.684-1.197a91.685 91.685 0 0 1 2.135-3.504c.247-.386.503-.77.754-1.152.092-.138.182-.272.279-.41a72.9 72.9 0 0 1 .48-.701c.007-.012.019-.024.026-.037h.006c.26-.356.517-.713.773-1.065.278-.373.554-.735.83-1.09a31.075 31.075 0 0 1 1.777-2.075l-.515-1.446c-.06.057-.126.116-.192.178a32.37 32.37 0 0 0-.758.729c-.295.294-.597.606-.912.935a46.032 46.032 0 0 0-1.632 1.838l-.03.033.002.008c-.017.02-.033.044-.054.064-.266.323-.538.649-.801.985a39.105 39.105 0 0 0-1.445 1.95c-.043.06-.085.126-.127.186a26.458 26.458 0 0 0-1.403 2.303c-.13.247-.256.485-.37.715-.096.195-.187.395-.278.591-.21.463-.398.93-.566 1.399l.002.006a.36.36 0 0 0-.026.058c-.108.303-.203.608-.29.914-.14.174-.302.325-.483.46a3.505 3.505 0 0 0-.131-.153 5.148 5.148 0 0 0 .824-2.211 6.4 6.4 0 0 0-.016-1.488c-.046-.4-.126-.82-.238-1.274-.097-.393-.217-.81-.363-1.248-.091.185-.22.367-.379.545l-.086.094c-.029.032-.06.06-.092.094.434-.674.486-1.397.358-2.148a2.722 2.722 0 0 1-.49.85c-.033.038-.072.077-.11.116-.01.007-.019.018-.033.028.144-.24.25-.467.318-.698a1.29 1.29 0 0 0 .04-.146 2.85 2.85 0 0 0 .038-.225l.018-.146a2.11 2.11 0 0 0-.002-.354c-.003-.04-.004-.076-.01-.113-.01-.055-.016-.105-.027-.154a7.416 7.416 0 0 0-.193-.84c-.01-.028-.015-.056-.026-.084-.027-.079-.048-.149-.072-.209a2.1 2.1 0 0 0-.09-.209.455.455 0 0 1-.035.1c-.102.24-.34.57-.557.8-.003.003-.007.005-.007.01l-.04.043c.318-.58.39-.946.385-1.398a12.274 12.274 0 0 0-.16-1.615 10.68 10.68 0 0 0-.232-1.104 5.853 5.853 0 0 0-.18-.558 6.337 6.337 0 0 0-.172-.391 26.18 26.18 0 0 0 .002-.004C5.576.341 4.82.124 4.82.124s-.27-.11-.582-.123zm3.38 15.783l.032.082v.002c-.06.033-.116.067-.178.097-.012.004-.024.012-.039.018a2.41 2.41 0 0 0 .186-.2zm-.603 1.626c.13.136.25.242.354.32l.07.227a1.866 1.866 0 0 0-.246.053l-.03-.098c-.024-.084-.048-.17-.076-.257l-.021-.073zm.26.875a2.34 2.34 0 0 1 .271.01l.07.229a.778.778 0 0 1 .247-.004l-.326.627a127.643 127.643 0 0 1-.262-.862z"/>
  </svg>
  <text x="372" y="207" text-anchor="middle" font-family="'Segoe UI', system-ui, sans-serif" font-size="8.5" font-weight="600" fill="#fb923c">Maven</text>

  <!-- H2 (Simple Icons — h2database) -->
  <rect x="405" y="170" width="46" height="44" rx="7" fill="#1e2035" stroke="#60a5fa" stroke-width="1"/>
  <svg x="415" y="173" width="26" height="26" viewBox="0 0 24 24">
    <path fill="#60a5fa" d="M17.17 13.27c.14-.015.28-.023.416-.023.7 0 1.228.159 1.599.469.37.314.555.756.555 1.334a2.861 2.861 0 0 1-.43 1.455c-.291.492-.775 1.066-1.46 1.727-.453.446-1.061.976-1.821 1.592a48.02 48.02 0 0 1-2.275 1.742v2.083h9.895V21.24H17.99c.219-.159.59-.435 1.11-.832.519-.4 1.033-.835 1.55-1.311.817-.76 1.425-1.5 1.822-2.215a4.624 4.624 0 0 0 .597-2.268c0-1.213-.416-2.154-1.247-2.815-.828-.662-2.033-.994-3.613-.994-.344 0-.692.015-1.036.049V6.04H13.86v4.701H8.965V6.04H5.65v12.846h3.315v-5.661h4.89v5.661h.039c.31-.242.623-.487.933-.74a28.564 28.564 0 0 0 1.826-1.588 14.854 14.854 0 0 0 .517-.529zM12.011 23.3A11.327 11.327 0 0 1 .7 11.99 11.305 11.305 0 0 1 12.011.699a11.286 11.286 0 0 1 11.29 11.29v.351H24v-.351A11.985 11.985 0 0 0 12.011 0 12.008 12.008 0 0 0 0 11.989 12.026 12.026 0 0 0 12.011 24h.352v-.7z"/>
  </svg>
  <text x="428" y="207" text-anchor="middle" font-family="'Segoe UI', system-ui, sans-serif" font-size="8.5" font-weight="600" fill="#60a5fa">H2</text>

  <!-- Redis (Simple Icons) -->
  <rect x="461" y="170" width="46" height="44" rx="7" fill="#1e2035" stroke="#f87171" stroke-width="1"/>
  <svg x="471" y="173" width="26" height="26" viewBox="0 0 24 24">
    <path fill="#f87171" d="M22.71 13.145c-1.66 2.092-3.452 4.483-7.038 4.483-3.203 0-4.397-2.825-4.48-5.12.701 1.484 2.073 2.685 4.214 2.63 4.117-.133 6.94-3.852 6.94-7.239 0-4.05-3.022-6.972-8.268-6.972-3.752 0-8.4 1.428-11.455 3.685C2.59 6.937 3.885 9.958 4.35 9.626c2.648-1.904 4.748-3.13 6.784-3.744C8.12 9.244.886 17.05 0 18.425c.1 1.261 1.66 4.648 2.424 4.648.232 0 .431-.133.664-.365a100.49 100.49 0 0 0 5.54-6.765c.222 3.104 1.748 6.898 6.014 6.898 3.819 0 7.604-2.756 9.33-8.965.2-.764-.73-1.361-1.261-.73zm-4.349-5.013c0 1.959-1.926 2.922-3.685 2.922-.941 0-1.664-.247-2.235-.568 1.051-1.592 2.092-3.225 3.21-4.973 1.972.334 2.71 1.43 2.71 2.619z"/>
  </svg>
  <text x="484" y="207" text-anchor="middle" font-family="'Segoe UI', system-ui, sans-serif" font-size="8.5" font-weight="600" fill="#f87171">Redis</text>

  <!-- Docker (Simple Icons) -->
  <rect x="517" y="170" width="46" height="44" rx="7" fill="#1e2035" stroke="#38bdf8" stroke-width="1"/>
  <svg x="527" y="173" width="26" height="26" viewBox="0 0 24 24">
    <path d="M13.983 11.078h2.119a.186.186 0 00.186-.185V9.006a.186.186 0 00-.186-.186h-2.119a.185.185 0 00-.185.185v1.888c0 .102.083.185.185.185m-2.954-5.43h2.118a.186.186 0 00.186-.186V3.574a.186.186 0 00-.186-.185h-2.118a.185.185 0 00-.185.185v1.888c0 .102.082.185.185.185m0 2.716h2.118a.187.187 0 00.186-.186V6.29a.186.186 0 00-.186-.185h-2.118a.185.185 0 00-.185.185v1.887c0 .102.082.185.185.186m-2.93 0h2.12a.186.186 0 00.184-.186V6.29a.185.185 0 00-.185-.185H8.1a.185.185 0 00-.185.185v1.887c0 .102.083.185.185.186m-2.964 0h2.119a.186.186 0 00.185-.186V6.29a.185.185 0 00-.185-.185H5.136a.186.186 0 00-.186.185v1.887c0 .102.084.185.186.186m5.893 2.715h2.118a.186.186 0 00.186-.185V9.006a.186.186 0 00-.186-.186h-2.118a.185.185 0 00-.185.185v1.888c0 .102.082.185.185.185m-2.93 0h2.12a.185.185 0 00.184-.185V9.006a.185.185 0 00-.184-.186h-2.12a.185.185 0 00-.184.185v1.888c0 .102.083.185.185.185m-2.964 0h2.119a.185.185 0 00.185-.185V9.006a.185.185 0 00-.184-.186h-2.12a.186.186 0 00-.186.186v1.887c0 .102.084.185.186.185m-2.92 0h2.12a.185.185 0 00.184-.185V9.006a.185.185 0 00-.184-.186h-2.12a.185.185 0 00-.184.185v1.888c0 .102.082.185.185.185M23.763 9.89c-.065-.051-.672-.51-1.954-.51-.338.001-.676.03-1.01.087-.248-1.7-1.653-2.53-1.716-2.566l-.344-.199-.226.327c-.284.438-.49.922-.612 1.43-.23.97-.09 1.882.403 2.661-.595.332-1.55.413-1.744.42H.751a.751.751 0 00-.75.748 11.376 11.376 0 00.692 4.062c.545 1.428 1.355 2.48 2.41 3.124 1.18.723 3.1 1.137 5.275 1.137.983.003 1.963-.086 2.93-.266a12.248 12.248 0 003.823-1.389c.98-.567 1.86-1.288 2.61-2.136 1.252-1.418 1.998-2.997 2.553-4.4h.221c1.372 0 2.215-.549 2.68-1.009.309-.293.55-.65.707-1.046l.098-.288Z" fill="#38bdf8"/>
  </svg>
  <text x="540" y="207" text-anchor="middle" font-family="'Segoe UI', system-ui, sans-serif" font-size="8.5" font-weight="600" fill="#38bdf8">Docker</text>

  <!-- Divider entre Stack e Patterns -->
  <line x1="60" y1="226" x2="740" y2="226" stroke="#1e2035" stroke-width="1"/>

  <!-- PATTERNS label -->
  <text x="60" y="256" font-family="'Segoe UI', system-ui, sans-serif" font-size="11" font-weight="600" fill="#64748b" letter-spacing="2">DESIGN PATTERNS &amp; ARQUITETURA</text>

  <!-- Pills -->
  <rect x="60" y="264" width="36" height="22" rx="4" fill="#312e81"/>
  <text x="78" y="279" text-anchor="middle" font-family="'Segoe UI', system-ui, sans-serif" font-size="10" fill="#a5b4fc">DDD</text>

  <rect x="104" y="264" width="60" height="22" rx="4" fill="#1e3a5f"/>
  <text x="134" y="279" text-anchor="middle" font-family="'Segoe UI', system-ui, sans-serif" font-size="11" fill="#93c5fd">Strategy</text>

  <rect x="172" y="264" width="72" height="22" rx="4" fill="#1e3a5f"/>
  <text x="208" y="279" text-anchor="middle" font-family="'Segoe UI', system-ui, sans-serif" font-size="11" fill="#93c5fd">Repository</text>

  <rect x="252" y="264" width="60" height="22" rx="4" fill="#1e3a5f"/>
  <text x="282" y="279" text-anchor="middle" font-family="'Segoe UI', system-ui, sans-serif" font-size="11" fill="#93c5fd">Command</text>

  <rect x="320" y="264" width="44" height="22" rx="4" fill="#312e81"/>
  <text x="342" y="279" text-anchor="middle" font-family="'Segoe UI', system-ui, sans-serif" font-size="11" fill="#a5b4fc">SOLID</text>

  <rect x="372" y="264" width="108" height="22" rx="4" fill="#1a2e1a"/>
  <text x="426" y="279" text-anchor="middle" font-family="'Segoe UI', system-ui, sans-serif" font-size="11" fill="#86efac">Bounded Contexts</text>

  <rect x="488" y="264" width="104" height="22" rx="4" fill="#1a2e1a"/>
  <text x="540" y="279" text-anchor="middle" font-family="'Segoe UI', system-ui, sans-serif" font-size="11" fill="#86efac">Context Mapping</text>

  <rect x="600" y="264" width="80" height="22" rx="4" fill="#1a2e1a"/>
  <text x="640" y="279" text-anchor="middle" font-family="'Segoe UI', system-ui, sans-serif" font-size="11" fill="#86efac">Anti-Fraude</text>

  <!-- Divider antes dos stats -->
  <line x1="60" y1="306" x2="740" y2="306" stroke="#1e2035" stroke-width="1"/>

  <!-- Tests -->
  <rect x="62" y="320" width="160" height="62" rx="10" fill="#0f1117" stroke="#1e2035" stroke-width="1"/>
  <text x="142" y="342" text-anchor="middle" font-family="'Segoe UI', system-ui, sans-serif" font-size="20" font-weight="700" fill="#4ade80" filter="url(#glow)">24</text>
  <text x="142" y="360" text-anchor="middle" font-family="'Segoe UI', system-ui, sans-serif" font-size="11" fill="#64748b">testes passando</text>
  <text x="142" y="374" text-anchor="middle" font-family="'Segoe UI', system-ui, sans-serif" font-size="10" fill="#374151">JUnit 5 · Mockito · MockMvc</text>

  <!-- Bounded Contexts -->
  <rect x="234" y="320" width="160" height="62" rx="10" fill="#0f1117" stroke="#1e2035" stroke-width="1"/>
  <text x="314" y="342" text-anchor="middle" font-family="'Segoe UI', system-ui, sans-serif" font-size="20" font-weight="700" fill="#6366f1" filter="url(#glow)">4</text>
  <text x="314" y="360" text-anchor="middle" font-family="'Segoe UI', system-ui, sans-serif" font-size="11" fill="#64748b">bounded contexts</text>
  <text x="314" y="374" text-anchor="middle" font-family="'Segoe UI', system-ui, sans-serif" font-size="10" fill="#374151">Conta · Sub · Música · TRX</text>

  <!-- Fraud rules -->
  <rect x="406" y="320" width="160" height="62" rx="10" fill="#0f1117" stroke="#1e2035" stroke-width="1"/>
  <text x="486" y="342" text-anchor="middle" font-family="'Segoe UI', system-ui, sans-serif" font-size="20" font-weight="700" fill="#f59e0b" filter="url(#glow)">5</text>
  <text x="486" y="360" text-anchor="middle" font-family="'Segoe UI', system-ui, sans-serif" font-size="11" fill="#64748b">regras antifraude</text>
  <text x="486" y="374" text-anchor="middle" font-family="'Segoe UI', system-ui, sans-serif" font-size="10" fill="#374151">Strategy · OCP · @Order</text>

  <!-- Port -->
  <rect x="578" y="320" width="160" height="62" rx="10" fill="#0f1117" stroke="#1e2035" stroke-width="1"/>
  <text x="658" y="342" text-anchor="middle" font-family="'Segoe UI', system-ui, sans-serif" font-size="20" font-weight="700" fill="#38bdf8" filter="url(#glow)">:8087</text>
  <text x="658" y="360" text-anchor="middle" font-family="'Segoe UI', system-ui, sans-serif" font-size="11" fill="#64748b">porta da aplicacao</text>
  <text x="658" y="374" text-anchor="middle" font-family="'Segoe UI', system-ui, sans-serif" font-size="10" fill="#374151">Swagger · H2 Console · API</text>
</svg>
