<svg xmlns="http://www.w3.org/2000/svg" viewBox="0 0 840 300" width="760" height="271">
  <defs>
    <linearGradient id="dpBg" x1="0%" y1="0%" x2="100%" y2="100%">
      <stop offset="0%" style="stop-color:#0f1117;stop-opacity:1"/>
      <stop offset="100%" style="stop-color:#1a1d2e;stop-opacity:1"/>
    </linearGradient>
    <linearGradient id="dpStrat" x1="0%" y1="0%" x2="100%" y2="0%">
      <stop offset="0%" style="stop-color:#6366f1;stop-opacity:1"/>
      <stop offset="100%" style="stop-color:#818cf8;stop-opacity:1"/>
    </linearGradient>
    <linearGradient id="dpRepo" x1="0%" y1="0%" x2="100%" y2="0%">
      <stop offset="0%" style="stop-color:#38bdf8;stop-opacity:1"/>
      <stop offset="100%" style="stop-color:#7dd3fc;stop-opacity:1"/>
    </linearGradient>
    <linearGradient id="dpCmd" x1="0%" y1="0%" x2="100%" y2="0%">
      <stop offset="0%" style="stop-color:#f59e0b;stop-opacity:1"/>
      <stop offset="100%" style="stop-color:#fbbf24;stop-opacity:1"/>
    </linearGradient>
    <filter id="dpShadow" x="-4%" y="-4%" width="108%" height="108%">
      <feFlood flood-color="#6366f1" flood-opacity="0.4" result="color"/>
      <feComposite in="color" in2="SourceAlpha" operator="in" result="shadowBase"/>
      <feGaussianBlur in="shadowBase" stdDeviation="7" result="shadowBlur"/>
      <feMerge>
        <feMergeNode in="shadowBlur"/>
        <feMergeNode in="SourceGraphic"/>
      </feMerge>
    </filter>
  </defs>

  <!-- Outer container -->
  <rect x="20" y="10" width="800" height="280" rx="10" fill="url(#dpBg)"
        stroke="#6366f1" stroke-width="1.5" stroke-opacity="0.6" filter="url(#dpShadow)"/>

  <!-- ── CARD 1: Strategy ── -->
  <rect x="40" y="26" width="240" height="254" rx="8" fill="#0d1117" stroke="#6366f1" stroke-width="1" stroke-opacity="0.7"/>
  <rect x="40" y="26" width="240" height="4" rx="2" fill="url(#dpStrat)"/>
  <g transform="translate(124, 40)">
    <line x1="0" y1="3" x2="4" y2="3" stroke="#a5b4fc" stroke-width="1.3" stroke-linecap="round"/>
    <line x1="0" y1="9" x2="4" y2="9" stroke="#a5b4fc" stroke-width="1.3" stroke-linecap="round"/>
    <path d="M4,3 C6,3 7,9 9,9 L13,9" fill="none" stroke="#a5b4fc" stroke-width="1.3" stroke-linecap="round"/>
    <path d="M4,9 C6,9 7,3 9,3 L13,3" fill="none" stroke="#a5b4fc" stroke-width="1.3" stroke-linecap="round"/>
    <polyline points="11,1 13,3 11,5" fill="none" stroke="#a5b4fc" stroke-width="1.3" stroke-linecap="round" stroke-linejoin="round"/>
    <polyline points="11,7 13,9 11,11" fill="none" stroke="#a5b4fc" stroke-width="1.3" stroke-linecap="round" stroke-linejoin="round"/>
  </g>
  <text x="169" y="52" text-anchor="middle" font-family="'Segoe UI',system-ui,sans-serif" font-size="12" font-weight="700" fill="#a5b4fc">Strategy</text>
  <line x1="56" y1="61" x2="264" y2="61" stroke="#1e2035" stroke-width="1"/>

  <!-- Interface badge -->
  <rect x="56" y="68" width="208" height="22" rx="4" fill="#1e2035" stroke="#6366f1" stroke-width="1" stroke-opacity="0.7"/>
  <text x="160" y="83" text-anchor="middle" font-family="'Segoe UI',system-ui,sans-serif" font-size="10" fill="#a5b4fc">≪interface≫  RegraAntifraude</text>

  <!-- Order badge + class name (×5) -->
  <rect x="56" y="97"  width="18" height="17" rx="3" fill="#312e81"/>
  <text x="65" y="109" text-anchor="middle" font-family="'Segoe UI',system-ui,sans-serif" font-size="10" font-weight="700" fill="#a5b4fc">1</text>
  <text x="82" y="109" font-family="'Segoe UI',system-ui,sans-serif" font-size="10" fill="#cbd5e1">RegraCartaoValido</text>

  <rect x="56" y="119" width="18" height="17" rx="3" fill="#312e81"/>
  <text x="65" y="131" text-anchor="middle" font-family="'Segoe UI',system-ui,sans-serif" font-size="10" font-weight="700" fill="#a5b4fc">2</text>
  <text x="82" y="131" font-family="'Segoe UI',system-ui,sans-serif" font-size="10" fill="#cbd5e1">RegraCartaoAtivo</text>

  <rect x="56" y="141" width="18" height="17" rx="3" fill="#312e81"/>
  <text x="65" y="153" text-anchor="middle" font-family="'Segoe UI',system-ui,sans-serif" font-size="10" font-weight="700" fill="#a5b4fc">3</text>
  <text x="82" y="153" font-family="'Segoe UI',system-ui,sans-serif" font-size="10" fill="#cbd5e1">RegraAssinaturaAtiva</text>

  <rect x="56" y="163" width="18" height="17" rx="3" fill="#312e81"/>
  <text x="65" y="175" text-anchor="middle" font-family="'Segoe UI',system-ui,sans-serif" font-size="10" font-weight="700" fill="#a5b4fc">4</text>
  <text x="82" y="175" font-family="'Segoe UI',system-ui,sans-serif" font-size="10" fill="#cbd5e1">RegraAltaFrequencia</text>

  <rect x="56" y="185" width="18" height="17" rx="3" fill="#312e81"/>
  <text x="65" y="197" text-anchor="middle" font-family="'Segoe UI',system-ui,sans-serif" font-size="10" font-weight="700" fill="#a5b4fc">5</text>
  <text x="82" y="197" font-family="'Segoe UI',system-ui,sans-serif" font-size="10" fill="#cbd5e1">RegraTransacaoDuplicada</text>

  <!-- Arrow + domain service -->
  <line x1="160" y1="208" x2="160" y2="218" stroke="#4a5568" stroke-width="1.5"/>
  <polygon points="160,222 156,214 164,214" fill="#4a5568"/>
  <text x="172" y="218" font-family="'Segoe UI',system-ui,sans-serif" font-size="10" fill="#4a5568">Spring injeta lista</text>

  <rect x="56" y="227" width="208" height="22" rx="4" fill="#1e2035" stroke="#4ade80" stroke-width="1"/>
  <text x="160" y="242" text-anchor="middle" font-family="'Segoe UI',system-ui,sans-serif" font-size="10" font-weight="700" fill="#86efac">ServicoAntifraude</text>

  <text x="160" y="263" text-anchor="middle" font-family="'Segoe UI',system-ui,sans-serif" font-size="10" fill="#4a5568">OCP: nova regra = novo @Component</text>


  <!-- ── CARD 2: Repository ── -->
  <rect x="300" y="26" width="240" height="254" rx="8" fill="#0d1117" stroke="#38bdf8" stroke-width="1" stroke-opacity="0.7"/>
  <rect x="300" y="26" width="240" height="4" rx="2" fill="url(#dpRepo)"/>
  <g transform="translate(376, 40)">
    <rect x="1" y="3" width="11" height="8.5" rx="1.2" fill="none" stroke="#7dd3fc" stroke-width="1.3"/>
    <line x1="1" y1="6" x2="12" y2="6" stroke="#7dd3fc" stroke-width="1.3" stroke-linecap="round"/>
    <line x1="5" y1="6" x2="5" y2="11.5" stroke="#7dd3fc" stroke-width="1.3" stroke-linecap="round"/>
    <polyline points="4.5,1 6.5,3 8.5,1" fill="none" stroke="#7dd3fc" stroke-width="1.3" stroke-linecap="round" stroke-linejoin="round"/>
  </g>
  <text x="429" y="52" text-anchor="middle" font-family="'Segoe UI',system-ui,sans-serif" font-size="12" font-weight="700" fill="#7dd3fc">Repository</text>
  <line x1="316" y1="61" x2="524" y2="61" stroke="#1e2035" stroke-width="1"/>

  <!-- DOMAIN layer -->
  <text x="316" y="80" font-family="'Segoe UI',system-ui,sans-serif" font-size="10" font-weight="600" fill="#38bdf8" letter-spacing="2">DOMAIN</text>
  <rect x="316" y="86" width="208" height="42" rx="5" fill="#071526" stroke="#38bdf8" stroke-width="1"/>
  <text x="420" y="101" text-anchor="middle" font-family="'Segoe UI',system-ui,sans-serif" font-size="10" fill="#64748b">≪interface≫</text>
  <text x="420" y="119" text-anchor="middle" font-family="'Segoe UI',system-ui,sans-serif" font-size="11" font-weight="600" fill="#7dd3fc">AccountRepository</text>

  <!-- implements connector -->
  <line x1="420" y1="128" x2="420" y2="150" stroke="#38bdf8" stroke-width="1.5" stroke-opacity="0.4" stroke-dasharray="4,3"/>
  <polygon points="420,150 416,142 424,142" fill="#38bdf8" fill-opacity="0.5"/>
  <text x="432" y="143" font-family="'Segoe UI',system-ui,sans-serif" font-size="10" fill="#64748b">implements</text>

  <!-- INFRASTRUCTURE layer -->
  <text x="316" y="165" font-family="'Segoe UI',system-ui,sans-serif" font-size="10" font-weight="600" fill="#4ade80" letter-spacing="2">INFRASTRUCTURE</text>
  <rect x="316" y="171" width="208" height="42" rx="5" fill="#061409" stroke="#4ade80" stroke-width="1"/>
  <text x="420" y="186" text-anchor="middle" font-family="'Segoe UI',system-ui,sans-serif" font-size="10" fill="#64748b">Spring Data JPA</text>
  <text x="420" y="204" text-anchor="middle" font-family="'Segoe UI',system-ui,sans-serif" font-size="11" font-weight="600" fill="#86efac">AccountJpaRepository</text>

  <!-- DIP note -->
  <line x1="316" y1="224" x2="524" y2="224" stroke="#1e2035" stroke-width="1"/>
  <text x="420" y="241" text-anchor="middle" font-family="'Segoe UI',system-ui,sans-serif" font-size="10" fill="#64748b">domain/ não importa infrastructure/</text>
  <text x="420" y="256" text-anchor="middle" font-family="'Segoe UI',system-ui,sans-serif" font-size="10" fill="#64748b">DIP ✓ — infra é substituível</text>
  <text x="420" y="269" text-anchor="middle" font-family="'Segoe UI',system-ui,sans-serif" font-size="10" fill="#374151">4 repos: Account · Sub · TRX · Music</text>


  <!-- ── CARD 3: Command ── -->
  <rect x="560" y="26" width="240" height="254" rx="8" fill="#0d1117" stroke="#f59e0b" stroke-width="1" stroke-opacity="0.7"/>
  <rect x="560" y="26" width="240" height="4" rx="2" fill="url(#dpCmd)"/>
  <g transform="translate(647, 40)">
    <rect x="0.5" y="2" width="12" height="8.5" rx="1.2" fill="none" stroke="#fcd34d" stroke-width="1.3"/>
    <polyline points="0.5,2 6.5,7 12.5,2" fill="none" stroke="#fcd34d" stroke-width="1.3" stroke-linecap="round" stroke-linejoin="round"/>
  </g>
  <text x="689" y="52" text-anchor="middle" font-family="'Segoe UI',system-ui,sans-serif" font-size="12" font-weight="700" fill="#fcd34d">Command</text>
  <line x1="576" y1="61" x2="784" y2="61" stroke="#1e2035" stroke-width="1"/>

  <!-- record badge + concept -->
  <rect x="576" y="68" width="44" height="20" rx="3" fill="#1c1208" stroke="#f59e0b" stroke-width="1"/>
  <text x="598" y="82" text-anchor="middle" font-family="'Segoe UI',system-ui,sans-serif" font-size="10" font-weight="600" fill="#fcd34d">record</text>
  <text x="630" y="82" font-family="'Segoe UI',system-ui,sans-serif" font-size="10" fill="#64748b">imutável · sem setters</text>

  <!-- Code block -->
  <rect x="576" y="92" width="208" height="82" rx="5" fill="#0d0a03" stroke="#f59e0b" stroke-width="1" stroke-opacity="0.5"/>
  <text x="588" y="109" font-family="'Segoe UI',system-ui,sans-serif" font-size="10" fill="#64748b">AutorizarTransacaoCommand(</text>
  <text x="600" y="124" font-family="'Segoe UI',system-ui,sans-serif" font-size="10" fill="#cbd5e1">UUID        contaId</text>
  <text x="600" y="139" font-family="'Segoe UI',system-ui,sans-serif" font-size="10" fill="#cbd5e1">BigDecimal  valor</text>
  <text x="600" y="154" font-family="'Segoe UI',system-ui,sans-serif" font-size="10" fill="#cbd5e1">String      nomeComercio</text>
  <text x="588" y="169" font-family="'Segoe UI',system-ui,sans-serif" font-size="10" fill="#64748b">)</text>

  <!-- Commands list -->
  <line x1="576" y1="184" x2="784" y2="184" stroke="#1e2035" stroke-width="1"/>
  <text x="576" y="199" font-family="'Segoe UI',system-ui,sans-serif" font-size="10" font-weight="600" fill="#64748b" letter-spacing="2">COMMANDS NO PROJETO</text>

  <circle cx="582" cy="212" r="2.5" fill="#f59e0b"/>
  <text x="591" y="216" font-family="'Segoe UI',system-ui,sans-serif" font-size="10" fill="#cbd5e1">AutorizarTransacaoCommand</text>
  <circle cx="582" cy="228" r="2.5" fill="#f59e0b"/>
  <text x="591" y="232" font-family="'Segoe UI',system-ui,sans-serif" font-size="10" fill="#cbd5e1">AssinarCommand</text>
  <circle cx="582" cy="244" r="2.5" fill="#f59e0b"/>
  <text x="591" y="248" font-family="'Segoe UI',system-ui,sans-serif" font-size="10" fill="#cbd5e1">FavoritarMusicaCommand</text>
  <circle cx="582" cy="260" r="2.5" fill="#f59e0b"/>
  <text x="591" y="264" font-family="'Segoe UI',system-ui,sans-serif" font-size="10" fill="#cbd5e1">CriarPlaylistCommand</text>
</svg>
