<svg xmlns="http://www.w3.org/2000/svg" width="88" height="42" viewBox="45 29 88 42" fill="none" id="Logo"><path d="M124.575 31.9837C125.397 33.2122 126.186 34.7277 125.798 36.3518C124.459 35.5854 123.382 34.3341 122.528 33.0988C121.668 31.8552 120.775 30.5328 120.469 29C122.158 29.432 123.67 30.6312 124.575 31.9837Z" fill="#394149"/><path d="M51.9801 36.3492C51.5931 34.7248 52.3837 33.2099 53.2072 31.9821C54.1137 30.6304 55.6262 29.4323 57.3154 29.0015C57.0085 30.534 56.1141 31.8559 55.2532 33.0987C54.3981 34.3334 53.3196 35.5839 51.9801 36.3492Z" fill="#394149"/><path d="M50.8025 39.465C51.1046 38.1786 51.0979 36.7703 50.8103 35.5637C50.5574 34.5033 50.1894 33.0043 48.9782 32.4985C48.0978 33.9107 47.7439 35.8338 48.257 37.2748C48.628 38.3171 49.2952 39.6952 50.6789 39.9085C51.9486 40.2012 53.2325 39.5239 54.2465 38.9647C55.374 38.343 56.4784 37.3539 57.1494 36.178C55.9185 35.5567 54.5167 36.0609 53.4621 36.5441C52.3253 37.065 51.281 38.1826 50.8025 39.465Z" fill="#394149"/><path d="M75.4441 40.7008V34.2422H73.2391V36.5953H69.9316V34.2422H67.7266V40.7008H69.9316V38.356H73.2391V40.7008H75.4441Z" fill="#394149"/><path d="M82.7552 34.2422H85.1905L81.735 38.5699V40.7008H79.5218V38.5781L76.1074 34.2422H78.6167L80.6572 36.8256L82.7552 34.2422Z" fill="#394149"/><path fill-rule="evenodd" clip-rule="evenodd" d="M92.8704 34.7934C93.3065 35.139 93.5533 35.7232 93.5533 36.5706C93.5533 37.2617 93.3805 37.78 93.0514 38.1421C92.6071 38.6522 91.8749 38.8825 90.9205 38.8908C90.6243 38.899 88.0902 38.8908 88.0902 38.8908V40.7008H85.877V34.2422H90.8876C91.7761 34.2422 92.4508 34.4232 92.8704 34.7934ZM91.2331 37.0725C91.299 36.9573 91.3319 36.8092 91.3319 36.6035C91.3319 36.3896 91.2907 36.2086 91.2167 36.1099C91.0768 35.9042 90.8135 35.8054 90.3857 35.8054H88.0738V37.3851H90.3692C90.83 37.3851 91.1015 37.2782 91.2331 37.0725Z" fill="#394149"/><path d="M101.237 39.0964V40.7008H94.4336V34.2422H101.18V35.8548H96.6056V36.6858H101.048V38.2572H96.6056V39.0964H101.237Z" fill="#394149"/><path fill-rule="evenodd" clip-rule="evenodd" d="M109.498 34.9006C109.795 35.205 109.934 35.6246 109.934 36.2088C109.934 36.7107 109.811 37.1385 109.605 37.4265C109.375 37.7391 109.021 38.0024 108.585 38.0682L110.535 40.701H108.083L106.479 38.422H104.48V40.701H102.283V34.2424H107.425C108.445 34.2424 109.112 34.4892 109.498 34.9006ZM107.721 36.7518C107.779 36.6531 107.795 36.5214 107.795 36.4145C107.795 36.2911 107.779 36.1594 107.721 36.0771C107.606 35.8632 107.376 35.8056 107.03 35.8056H104.488V36.9822H107.071C107.425 36.9822 107.639 36.9164 107.721 36.7518Z" fill="#394149"/><path d="M100.059 48.8017C100.059 47.3254 99.1211 46.5495 96.9335 46.3124C96.5779 46.2693 95.5326 46.1615 94.8752 46.1076C93.1833 45.9244 92.6769 45.8275 92.6769 45.3964C92.6769 45.0085 93.0756 44.8253 94.595 44.8253C95.6727 44.8253 96.2762 45.03 96.5132 45.3425C96.6318 45.4934 96.6749 45.6119 96.6857 45.7305H99.7893C99.7569 45.4718 99.6492 45.1054 99.4767 44.7822C98.9164 43.7045 97.5693 42.8424 94.6705 42.8424C91.4052 42.8424 89.6164 43.9955 89.6164 45.5042C89.6164 46.959 90.6293 47.8103 93.3665 48.0582C93.676 48.0847 94.3407 48.1475 94.8849 48.1989L94.9185 48.2021L94.9246 48.2027L94.927 48.2029L95.2201 48.2306C96.6533 48.3815 97.0413 48.4784 97.0413 48.9311C97.0413 49.3513 96.6641 49.5776 95.08 49.5776C93.8515 49.5776 93.1295 49.3944 92.8708 49.0819C92.7631 48.9526 92.6876 48.7586 92.6661 48.6293H89.5625C89.5948 48.8448 89.6487 49.1897 89.7672 49.4699C90.2953 50.6553 91.6747 51.5605 94.8752 51.5605C98.3129 51.5605 100.059 50.5906 100.059 48.8017Z" fill="#394149"/><path fill-rule="evenodd" clip-rule="evenodd" d="M78.0575 50.5691C78.3808 50.1919 78.5424 49.6207 78.5424 49.0388C78.5424 48.5431 78.4131 48.0689 78.1437 47.7564C77.8204 47.3361 77.2492 47.0344 76.6458 46.959C77.0553 46.9051 77.4432 46.6896 77.6695 46.4094C77.9497 46.0753 78.079 45.6227 78.079 45.0731C78.079 44.5235 77.9174 44.0386 77.551 43.6722C77.1415 43.2519 76.3979 42.9717 75.2341 42.9717H67.9277V51.4312H75.4388C76.635 51.4312 77.5618 51.1725 78.0575 50.5691ZM75.0832 45.5796C75.0832 45.7844 75.0185 45.9568 74.9108 46.0753C74.7599 46.2154 74.4797 46.2693 74.1133 46.2693H70.7511V44.8899H74.0379C74.4474 44.8899 74.7276 44.9438 74.8784 45.0839C75.0185 45.2024 75.0832 45.3748 75.0832 45.5796ZM75.4065 49.2867C75.2341 49.4483 74.9323 49.513 74.4258 49.513H70.7511V48.1013H74.4582C74.9323 48.1013 75.2125 48.1659 75.3741 48.306C75.5035 48.4353 75.5573 48.597 75.5573 48.8125C75.5573 49.0173 75.5142 49.1789 75.4065 49.2867Z" fill="#394149"/><path d="M88.6893 49.3298V51.4312H79.7773V42.9717H88.6139V45.0839H82.6222V46.1723H88.4415V48.2306H82.6222V49.3298H88.6893Z" fill="#394149"/><path d="M110.544 45.0947V42.9717H100.447V45.0947H104.014V51.4312H106.966V45.0947H110.544Z" fill="#394149"/><path d="M110.289 58.9169H109.814L109.78 58.4594C109.635 58.6909 109.328 58.9688 108.68 58.9688C107.585 58.9688 107.076 58.3088 107.076 56.6237C107.076 55.3209 107.4 54.2729 108.737 54.2729C109.896 54.2729 110.249 55.0315 110.266 55.8479H109.687C109.67 55.3152 109.432 54.8231 108.749 54.8231C107.927 54.8231 107.689 55.3153 107.689 56.6413C107.689 58.0252 107.985 58.4594 108.761 58.4594C109.305 58.4594 109.623 58.1584 109.728 57.7994V56.9366H108.558V56.4095H110.283V57.7415C110.283 58.1394 110.287 58.564 110.288 58.7775L110.289 58.8792V58.9169Z" fill="#394149"/><path fill-rule="evenodd" clip-rule="evenodd" d="M68.0375 57.7647H69.6588L69.9946 58.917H70.6084L69.265 54.3311H68.5181L67.082 58.917H67.69L68.0375 57.7647ZM69.514 57.2494H68.1938C68.1938 57.2494 68.767 55.3965 68.7786 55.356C68.7844 55.327 68.8771 54.9159 68.8771 54.9159L68.9412 55.22L68.9697 55.356C68.9755 55.3849 69.514 57.2494 69.514 57.2494Z" fill="#394149"/><path d="M75.0024 54.3309H75.5583L74.4755 58.9168H73.7864C73.7864 58.9168 73.0163 55.35 73.0163 55.1994C73.0105 55.35 72.223 58.9168 72.223 58.9168H71.534L70.4512 54.3309H71.0765C71.0765 54.3309 71.9161 57.9614 71.9161 58.1062C71.9161 57.9614 72.6863 54.3309 72.6863 54.3309H73.3753C73.3753 54.3309 74.1454 57.9672 74.1454 58.1062C74.1454 57.9672 75.0024 54.3309 75.0024 54.3309Z" fill="#394149"/><path fill-rule="evenodd" clip-rule="evenodd" d="M77.9361 57.7645H76.3148L75.9674 58.9168H75.3594L76.7954 54.3309H77.5424L78.8858 58.9168H78.272L77.9361 57.7645ZM76.4712 57.2492H77.7914C77.7914 57.2492 77.2529 55.3847 77.2471 55.3558L77.2033 55.1471L77.1544 54.9157C77.1544 54.9157 77.0618 55.3268 77.056 55.3558C77.0444 55.3963 76.4712 57.2492 76.4712 57.2492Z" fill="#394149"/><path fill-rule="evenodd" clip-rule="evenodd" d="M81.1172 54.3309C81.8236 54.3309 82.2058 54.6609 82.2058 55.6221C82.2058 56.4386 81.8989 56.7107 81.5804 56.8033L82.4606 58.9168H81.8236L81.0072 56.9192H79.8955V58.9168H79.3164V54.3309H81.1172ZM81.0304 56.398C81.4878 56.398 81.5978 56.1606 81.5978 55.6395C81.5978 55.0489 81.4241 54.8694 81.0014 54.8694H79.9012V56.398H81.0304Z" fill="#394149"/><path fill-rule="evenodd" clip-rule="evenodd" d="M86.0609 56.5486C86.0609 57.6314 85.9799 58.0714 85.7483 58.4015C85.5167 58.72 85.1519 58.9168 84.5612 58.9168H82.9863V54.3309H84.5207C85.0998 54.3309 85.5514 54.5046 85.7599 54.8173C85.9915 55.1531 86.0609 55.57 86.0609 56.5486ZM84.4397 58.3725C84.7929 58.3725 85.0882 58.2799 85.2387 58.0772C85.4009 57.8572 85.4472 57.4113 85.4472 56.5486C85.4472 55.8248 85.4066 55.4368 85.2387 55.1878C85.0824 54.9736 84.7813 54.8809 84.4281 54.8809H83.5711V58.3725H84.4397Z" fill="#394149"/><path d="M92.1703 54.3311H92.7262L91.6434 58.917H90.9543C90.9543 58.917 90.1842 55.3502 90.1842 55.1996C90.1784 55.3502 89.3909 58.917 89.3909 58.917H88.7019L87.6191 54.3311H88.2444C88.2444 54.3311 89.084 57.9616 89.084 58.1064C89.084 57.9616 89.8541 54.3311 89.8541 54.3311H90.5432C90.5432 54.3311 91.3133 57.9674 91.3133 58.1064C91.3133 57.9674 92.1703 54.3311 92.1703 54.3311Z" fill="#394149"/><path d="M93.7506 54.3311V58.917H93.1484V54.3311H93.7506Z" fill="#394149"/><path d="M97.5198 54.3311V58.917H96.8539L95.1457 55.3617V58.917H94.584V54.3311H95.2847L96.9523 57.8342V54.3311H97.5198Z" fill="#394149"/><path d="M101.273 54.3311V58.917H100.607L98.8996 55.3617V58.917H98.3379V54.3311H99.0386L100.706 57.8342V54.3311H101.273Z" fill="#394149"/><path d="M102.696 54.3311V58.917H102.094V54.3311H102.696Z" fill="#394149"/><path d="M106.465 54.3311V58.917H105.799L104.091 55.3617V58.917H103.529V54.3311H104.23L105.898 57.8342V54.3311H106.465Z" fill="#394149"/><path d="M74.5563 67.9553L73.8928 65.9131L73.2292 67.9553H71.082L72.8191 69.2175L72.1556 71.2597L73.8928 69.9975L75.63 71.2597L74.9664 69.2175L76.7036 67.9553H74.5563Z" fill="#394149"/><path d="M82.2289 67.9557L81.5518 65.9135L80.8747 67.9557H78.6836L80.4563 69.2178L79.7792 71.26L81.5518 69.9979L83.3245 71.26L82.6474 69.2178L84.42 67.9557H82.2289Z" fill="#394149"/><path d="M89.8285 67.9558L89.1514 65.9136L88.4743 67.9558H86.2832L88.0558 69.2179L87.3787 71.2601L89.1514 69.998L90.924 71.2601L90.2469 69.2179L92.0196 67.9558H89.8285Z" fill="#394149"/><path d="M97.4281 67.9558L96.751 65.9136L96.0739 67.9558H93.8828L95.6554 69.2179L94.9783 71.2601L96.751 69.998L98.5236 71.2601L97.8465 69.2179L99.6192 67.9558H97.4281Z" fill="#394149"/><path d="M105.076 67.9558L104.413 65.9136L103.749 67.9558H101.602L103.339 69.2179L102.676 71.2601L104.413 69.998L106.15 71.2601L105.486 69.2179L107.224 67.9558H105.076Z" fill="#394149"/><path d="M46.8918 42.9366C47.5162 43.8892 48.4824 45.0824 49.8912 45.0484C51.1723 45.1124 52.2791 44.2381 53.1507 43.5084C54.0894 42.7225 54.9367 41.5732 55.2944 40.3307C53.9841 39.9495 52.7296 40.6557 51.7941 41.3218C50.8172 42.0175 50.0659 43.2907 49.9045 44.598C49.8924 43.2883 49.5379 41.9356 48.9664 40.8459C48.4439 39.8497 47.7158 38.5031 46.4168 38.2339C45.905 39.784 46.0683 41.6806 46.8918 42.9366Z" fill="#394149"/><path d="M50.3079 50.1789C49.0004 50.398 47.725 49.5969 46.8967 48.6546C45.8303 47.4414 45.1958 45.8139 45.3252 44.1846C46.6684 44.2187 47.6857 45.3798 48.4376 46.2578C49.2474 47.2034 49.9109 48.4475 50.2292 49.7309C50.0892 48.4519 50.5186 47.0708 51.3157 46.2174C52.0851 45.3936 53.1629 44.4958 54.5039 44.6399C54.475 45.9368 53.8249 47.1724 53.1544 48.0978C52.5294 48.9602 51.5666 50.0269 50.3079 50.1789Z" fill="#394149"/><path d="M47.8931 54.4881C49.0973 55.2721 50.5578 56.0481 52.0927 55.4608C53.3519 55.0153 54.1525 53.7478 54.6449 52.5844C55.1665 51.3517 55.5149 49.9303 55.2737 48.5811C53.89 48.7039 52.7426 49.6939 52.1332 50.9024C51.4961 52.1658 51.3739 53.6696 51.8633 54.9942C51.1402 53.6315 50.0827 52.5289 48.9625 51.5101C47.9442 50.584 46.4774 49.6084 45 49.7919C45.2811 51.6184 46.3957 53.5133 47.8931 54.4881Z" fill="#394149"/><path d="M55.1955 60.399C56.3805 59.6906 56.8574 58.2 57.0523 56.9227C57.2624 55.5452 57.2534 54.026 56.6813 52.7192C55.3065 53.1032 54.3628 54.3406 54.0512 55.6959C53.722 57.1278 53.9998 58.6539 54.8006 59.8731C53.7361 58.6518 52.3206 57.6434 50.9641 56.9363C49.6538 56.2533 48.0463 55.4295 46.4727 55.927C47.2315 57.7789 48.8547 59.5031 50.6537 60.2163C52.0469 60.7685 53.7418 61.3146 55.1955 60.399Z" fill="#394149"/><path d="M60.8114 60.8781C60.9853 62.2077 60.9804 63.8941 59.9481 64.9175C58.6581 66.2379 56.6617 65.9831 55.1219 65.6926C53.0547 65.3023 50.7277 63.8924 49.4805 62.0151C51.0037 61.1764 52.8666 61.7129 54.3746 62.1472L54.4607 62.1719C56.144 62.6562 57.9378 63.4362 59.438 64.502C58.2408 63.4202 57.3685 61.8324 57.3258 60.232C57.2874 58.8006 57.9087 57.2692 59.2457 56.5869C60.1791 57.812 60.6162 59.3849 60.8114 60.8781Z" fill="#394149"/><path d="M66.8044 68.6826C67.5646 67.2355 66.8114 65.5371 66.2112 64.2818C65.5016 62.7978 64.5321 61.2854 63.1446 60.1992C61.8123 61.3474 61.939 62.9903 62.3351 64.4181C62.8061 66.1158 64.439 67.563 66.1299 68.3877C64.1716 67.6574 62.0329 67.2191 59.9981 67.0897L59.792 67.0764C58.1573 66.9699 56.0292 66.8313 54.7266 68.0276C56.6961 69.7019 59.4936 70.6679 61.9592 70.6177C63.6115 70.5841 65.8785 70.3886 66.8044 68.6826Z" fill="#394149"/><path d="M126.975 39.4696C126.498 38.1863 125.454 37.0673 124.318 36.5454C123.263 36.0614 121.862 35.5563 120.631 36.1765C121.301 37.3529 122.404 38.3428 123.531 38.9654C124.544 39.5252 125.827 40.2034 127.097 39.9119C128.481 39.6999 129.15 38.3221 129.522 37.2798C130.037 35.8395 129.685 33.916 128.806 32.5029C127.594 33.008 127.224 34.5066 126.971 35.5669C126.682 36.7738 126.674 38.1826 126.975 39.4696Z" fill="#394149"/><path d="M125.979 41.3245C126.955 42.0205 127.704 43.293 127.865 44.5994C127.879 43.2904 128.235 41.939 128.807 40.8504C129.33 39.8545 130.06 38.5085 131.359 38.2402C131.869 39.7908 131.704 41.6873 130.879 42.9426C130.255 43.8935 129.289 45.0842 127.883 45.0523C126.6 45.1178 125.492 44.2414 124.62 43.5102C123.682 42.7235 122.836 41.5736 122.48 40.3309C123.79 39.9505 125.044 40.6577 125.979 41.3245Z" fill="#394149"/><path d="M127.535 49.7393C127.678 48.4592 127.25 47.0752 126.452 46.2201C125.684 45.3957 124.607 44.4971 123.266 44.6402C123.293 45.9371 123.942 47.1733 124.612 48.0992C125.236 48.9617 126.197 50.0284 127.455 50.1821C128.763 50.4036 130.04 49.6029 130.87 48.6607C131.937 47.4484 132.573 45.8214 132.446 44.1919C131.102 44.2251 130.084 45.3853 129.331 46.2627C128.519 47.2089 127.854 48.4544 127.535 49.7393Z" fill="#394149"/><path d="M125.631 50.9048C126.267 52.1689 126.388 53.673 125.897 54.9972C126.621 53.6347 127.68 52.5328 128.801 51.5147C129.82 50.5893 131.288 49.615 132.765 49.7995C132.483 51.6259 131.366 53.52 129.868 54.4936C128.664 55.2756 127.205 56.05 125.672 55.4651C124.411 55.0204 123.61 53.7503 123.118 52.5849C122.597 51.3518 122.25 49.9302 122.493 48.5811C123.876 48.705 125.023 49.6959 125.631 50.9048Z" fill="#394149"/><path d="M122.959 59.8708C123.759 58.6528 124.038 57.1282 123.711 55.697C123.401 54.3414 122.458 53.1033 121.083 52.7183C120.51 54.0245 120.5 55.5436 120.708 56.9214C120.902 58.1962 121.376 59.6838 122.554 60.3948C124.009 61.3176 125.708 60.7718 127.103 60.2198C128.903 59.5079 130.528 57.7849 131.288 55.9334C129.715 55.4349 128.107 56.2575 126.796 56.9395C125.44 57.6452 124.024 58.6515 122.959 59.8708Z" fill="#394149"/><path d="M116.942 60.8743C116.767 62.2036 116.77 63.8899 117.802 64.9142C119.09 66.2356 121.087 65.9822 122.627 65.6927C124.695 65.304 127.023 63.8956 128.272 62.0194C126.75 61.1797 124.886 61.7146 123.378 62.1477L123.291 62.1725C121.608 62.6553 119.814 63.4337 118.313 64.4979C119.511 63.417 120.384 61.8305 120.428 60.2307C120.468 58.7994 119.848 57.2675 118.512 56.5841C117.577 57.8085 117.139 59.3812 116.942 60.8743Z" fill="#394149"/><path d="M115.788 70.6126C114.136 70.5777 111.869 70.3806 110.945 68.6738L110.932 68.6504C110.194 67.2077 110.944 65.5215 111.542 64.2736C112.253 62.7901 113.224 61.2784 114.612 60.1934C115.944 61.3425 115.815 62.9853 115.418 64.4127C114.945 66.1101 113.311 67.5563 111.619 68.3796C113.578 67.6508 115.717 67.2141 117.752 67.0861L117.959 67.0729C119.594 66.9677 121.722 66.8309 123.023 68.0279C121.052 69.7005 118.254 70.6646 115.788 70.6126Z" fill="#394149"/></svg>