<svg xmlns="http://www.w3.org/2000/svg" width="42" height="38" viewBox="0 0 42 38" fill="none" id="Logo"><g id="logomark"><path d="M5.74692 28.7259C7.28709 29.8002 9.7842 29.8002 11.3244 28.7259C12.8645 27.6516 12.8645 25.9098 11.3244 24.8355C9.7842 23.7612 7.28709 23.7612 5.74692 24.8355C4.20675 25.9098 4.20675 27.6516 5.74692 28.7259Z" fill="#25CAAC"/><path d="M21.7327 14.1369C24.043 15.7483 27.7885 15.7483 30.0988 14.1369C32.409 12.5254 32.409 9.91278 30.0988 8.30135C27.7885 6.68991 24.043 6.68991 21.7327 8.30135C19.4225 9.91278 19.4225 12.5254 21.7327 14.1369Z" fill="#25CAAC"/><path d="M13.2466 21.4316C15.1718 22.7744 18.2932 22.7744 20.2184 21.4316C22.1436 20.0887 22.1436 17.9115 20.2184 16.5686C18.2932 15.2258 15.1718 15.2258 13.2466 16.5686C11.3214 17.9115 11.3214 20.0887 13.2466 21.4316Z" fill="#25CAAC"/><path d="M0.866345 20.4591C2.02147 21.2648 3.8943 21.2648 5.04943 20.4591C6.20455 19.6534 6.20455 18.3471 5.04943 17.5413C3.8943 16.7356 2.02147 16.7356 0.866345 17.5413C-0.288782 18.3471 -0.288781 19.6534 0.866345 20.4591Z" fill="#25CAAC"/><path d="M13.2466 5.87008C15.1718 7.21294 18.2932 7.21294 20.2184 5.87008C22.1436 4.52722 22.1436 2.35001 20.2184 1.00715C18.2932 -0.335716 15.1718 -0.335717 13.2466 1.00715C11.3214 2.35001 11.3214 4.52722 13.2466 5.87008Z" fill="#25CAAC"/><path d="M5.74692 13.1643C7.28709 14.2386 9.7842 14.2386 11.3244 13.1643C12.8645 12.09 12.8645 10.3482 11.3244 9.27398C9.7842 8.19969 7.28709 8.19969 5.74692 9.27398C4.20675 10.3482 4.20676 12.09 5.74692 13.1643Z" fill="#25CAAC"/><path d="M13.2466 36.9931C15.1718 38.3359 18.2932 38.3359 20.2184 36.9931C22.1436 35.6502 22.1436 33.473 20.2184 32.1301C18.2932 30.7873 15.1718 30.7873 13.2466 32.1301C11.3214 33.473 11.3214 35.6502 13.2466 36.9931Z" fill="#25CAAC"/><path d="M31.9006 21.9177C34.2109 23.5291 37.9566 23.5291 40.2668 21.9177C42.5771 20.3063 42.5771 17.6936 40.2668 16.0822C37.9566 14.4707 34.2109 14.4707 31.9006 16.0822C29.5904 17.6936 29.5904 20.3063 31.9006 21.9177Z" fill="#25CAAC"/><path d="M21.7327 29.6983C24.043 31.3098 27.7885 31.3098 30.0988 29.6983C32.409 28.0869 32.409 25.4743 30.0988 23.8628C27.7885 22.2514 24.043 22.2514 21.7327 23.8628C19.4225 25.4743 19.4225 28.0869 21.7327 29.6983Z" fill="#25CAAC"/></g></svg>