
      <svg data-logo="logo" xmlns="http://www.w3.org/2000/svg" viewBox="0 0 215 42" width="215" height="42">
        <g id="logogram" transform="
    translate(0, 0.5)
    rotate(0 23 20.5)
    
  "><path d="M39.3285 32.987C43.1874 29.5411 45.5538 24.8908 45.5538 19.7738C45.5538 9.15126 35.3562 0.539978 22.7769 0.539978C10.1976 0.539978 0 9.15126 0 19.7738C0 30.3963 10.1976 39.0076 22.7769 39.0076C26.3456 39.0076 29.7226 38.3146 32.7295 37.0791C36.2616 39.2593 40.5891 40.8264 45.3684 40.4959C42.8435 39.8541 40.6717 37.2542 39.3285 32.987Z" fill="#B6EFA2"/><path d="M39.48 19.7738C39.48 27.6009 32.0018 33.9461 22.7769 33.9461C13.5521 33.9461 6.07385 27.6009 6.07385 19.7738C6.07385 11.9466 13.5521 5.6015 22.7769 5.6015C32.0018 5.6015 39.48 11.9466 39.48 19.7738Z" fill="#88E169"/><path d="M33.4061 19.7738C33.4061 24.8056 28.6473 28.8846 22.7769 28.8846C16.9065 28.8846 12.1477 24.8056 12.1477 19.7738C12.1477 14.742 16.9065 10.6631 22.7769 10.6631C28.6473 10.6631 33.4061 14.742 33.4061 19.7738Z" fill="#55AE36"/></g>
        <g id="logotype" transform="translate(52, 6.300000000000001)"><path fill="#111111" d="M12.12 1L12.12 1L27.08 1Q32.76 1 36.08 3.76Q39.40 6.52 39.40 10.84Q39.40 15.16 36.60 17.70Q33.80 20.24 27.08 20.24L27.08 20.24L21.80 20.24L21.80 27.92Q21.80 28.36 21.48 28.68Q21.16 29 20.72 29L20.72 29L12.12 29Q11.68 29 11.36 28.68Q11.04 28.36 11.04 27.92L11.04 27.92L11.04 2.08Q11.04 1.64 11.36 1.32Q11.68 1 12.12 1ZM26.92 8.44L21.84 8.44L21.84 12.84L26.92 12.84Q27.84 12.84 28.42 12.28Q29 11.72 29 10.72Q29 9.72 28.44 9.08Q27.88 8.44 26.92 8.44L26.92 8.44ZM65.66 26.48Q61.72 29.40 55 29.40Q48.28 29.40 44.34 26.48Q40.40 23.56 40.40 17.36L40.40 17.36L40.40 2.08Q40.40 1.64 40.72 1.32Q41.04 1 41.48 1L41.48 1L49.84 1Q50.28 1 50.60 1.32Q50.92 1.64 50.92 2.08L50.92 2.08L50.92 18Q50.92 19.64 52.02 20.52Q53.12 21.40 55 21.40Q56.88 21.40 57.98 20.52Q59.08 19.64 59.08 18L59.08 18L59.08 2.08Q59.08 1.64 59.40 1.32Q59.72 1 60.16 1L60.16 1L68.52 1Q68.96 1 69.28 1.32Q69.60 1.64 69.60 2.08L69.60 2.08L69.60 17.36Q69.60 23.56 65.66 26.48ZM86.40 2.08L86.40 20.80L100.04 20.80Q100.48 20.80 100.80 21.12Q101.12 21.44 101.12 21.88L101.12 21.88L101.12 27.92Q101.12 28.36 100.80 28.68Q100.48 29 100.04 29L100.04 29L76.68 29Q76.24 29 75.92 28.68Q75.60 28.36 75.60 27.92L75.60 27.92L75.60 2.08Q75.60 1.64 75.92 1.32Q76.24 1 76.68 1L76.68 1L85.32 1Q85.76 1 86.08 1.32Q86.40 1.64 86.40 2.08L86.40 2.08ZM121.20 11.16Q127.76 11.92 130.54 13.98Q133.32 16.04 133.32 20.16Q133.32 24.28 129.28 26.84Q125.24 29.40 118.56 29.40Q111.88 29.40 108.18 26.94Q104.48 24.48 104.48 20.88L104.48 20.88Q104.48 20 105.40 20L105.40 20L113.60 20Q114.44 20 114.96 20.52L114.96 20.52Q116.08 21.60 118.84 21.60L118.84 21.60Q122.64 21.60 122.64 20.44L122.64 20.44Q122.64 19.72 121.44 19.30Q120.24 18.88 116.68 18.48L116.68 18.48Q105.36 17.12 105.36 9.80L105.36 9.80Q105.36 5.68 109 3.14Q112.64 0.60 118.74 0.60Q124.84 0.60 128.60 3.26Q132.36 5.92 132.36 8.88L132.36 8.88Q132.36 9.28 132.10 9.52Q131.84 9.76 131.40 9.76L131.40 9.76L122.80 9.76Q122.08 9.76 121.56 9.28L121.56 9.28Q120.60 8.40 118.68 8.40L118.68 8.40Q116 8.40 116 9.52L116 9.52Q116 10.12 117.04 10.46Q118.08 10.80 121.20 11.16L121.20 11.16ZM148 18.68L148 21.20L163.96 21.20Q164.40 21.20 164.72 21.52Q165.04 21.84 165.04 22.28L165.04 22.28L165.04 27.92Q165.04 28.36 164.72 28.68Q164.40 29 163.96 29L163.96 29L138.68 29Q138.24 29 137.92 28.68Q137.60 28.36 137.60 27.92L137.60 27.92L137.60 2.08Q137.60 1.64 137.92 1.32Q138.24 1 138.68 1L138.68 1L163.56 1Q164 1 164.32 1.32Q164.64 1.64 164.64 2.08L164.64 2.08L164.64 7.72Q164.64 8.16 164.32 8.48Q164 8.80 163.56 8.80L163.56 8.80L148 8.80L148 11.32L161.36 11.32Q161.80 11.32 162.12 11.64Q162.44 11.96 162.44 12.40L162.44 12.40L162.44 17.60Q162.44 18.04 162.12 18.36Q161.80 18.68 161.36 18.68L161.36 18.68L148 18.68Z"/></g>
        
      </svg>
    