
      <svg data-logo="logo" xmlns="http://www.w3.org/2000/svg" viewBox="0 0 63.840003967285156 67.24" width="63.840003967285156" height="67.24">
        <g id="logogram" transform="
    translate(4.920001983642578, 0)
    rotate(0 27 20)
    
  "><path d="M26 0H38V12H26V0Z" fill="#FEC147"/><path d="M38 12H54V28H38V12Z" fill="#F45643"/><path d="M26 28H38V40H26V28Z" fill="#F45643"/><path d="M16 12H26V22H16V12Z" fill="#207AE6"/><path d="M8 22H16V30H8V22Z" fill="#207AE6"/><path d="M6 2H16V12H6V2Z" fill="#42C046"/><path d="M0 12H6V18H0V12Z" fill="#42C046"/></g>
        <g id="logotype" transform="translate(-8.49, 43)"><path fill="#111111" d="M17.58 2Q20.37 2 22.43 2.93Q24.48 3.86 25.59 5.57Q26.70 7.28 26.70 9.62L26.70 9.62Q26.70 11.93 25.59 13.66Q24.48 15.38 22.43 16.30Q20.37 17.21 17.58 17.21L17.58 17.21L13.35 17.21L13.35 23L8.49 23L8.49 2L17.58 2ZM17.31 13.25Q19.50 13.25 20.64 12.30Q21.78 11.36 21.78 9.62L21.78 9.62Q21.78 7.85 20.64 6.91Q19.50 5.96 17.31 5.96L17.31 5.96L13.35 5.96L13.35 13.25L17.31 13.25ZM35.25 23.24Q32.52 23.24 30.99 21.79Q29.46 20.33 29.46 17.66L29.46 17.66L29.46 0.74L34.14 0.74L34.14 17.39Q34.14 18.41 34.66 18.96Q35.19 19.52 36.15 19.52L36.15 19.52Q36.51 19.52 36.88 19.43Q37.26 19.34 37.47 19.22L37.47 19.22L37.68 22.85Q36.51 23.24 35.25 23.24L35.25 23.24ZM50.91 6.86L55.59 6.86L55.59 23L51.15 23L51.15 21.08Q50.22 22.13 48.93 22.68Q47.64 23.24 46.14 23.24L46.14 23.24Q42.96 23.24 41.10 21.41Q39.24 19.58 39.24 15.98L39.24 15.98L39.24 6.86L43.92 6.86L43.92 15.29Q43.92 19.19 47.19 19.19L47.19 19.19Q48.87 19.19 49.89 18.09Q50.91 17 50.91 14.84L50.91 14.84L50.91 6.86ZM64.71 23.24Q62.70 23.24 60.78 22.75Q58.86 22.25 57.72 21.50L57.72 21.50L59.28 18.14Q60.36 18.83 61.89 19.27Q63.42 19.70 64.89 19.70L64.89 19.70Q67.86 19.70 67.86 18.23L67.86 18.23Q67.86 17.54 67.05 17.24Q66.24 16.94 64.56 16.73L64.56 16.73Q62.58 16.43 61.29 16.04Q60.00 15.65 59.06 14.66Q58.11 13.67 58.11 11.84L58.11 11.84Q58.11 10.31 59.00 9.13Q59.88 7.94 61.58 7.28Q63.27 6.62 65.58 6.62L65.58 6.62Q67.29 6.62 68.98 7.00Q70.68 7.37 71.79 8.03L71.79 8.03L70.23 11.36Q68.10 10.16 65.58 10.16L65.58 10.16Q64.08 10.16 63.33 10.58Q62.58 11 62.58 11.66L62.58 11.66Q62.58 12.41 63.39 12.71Q64.20 13.01 65.97 13.28L65.97 13.28Q67.95 13.61 69.21 13.99Q70.47 14.36 71.40 15.35Q72.33 16.34 72.33 18.11L72.33 18.11Q72.33 19.61 71.43 20.78Q70.53 21.95 68.81 22.59Q67.08 23.24 64.71 23.24L64.71 23.24Z"/></g>
        
      </svg>
    