<svg xmlns="http://www.w3.org/2000/svg" width="74" height="60" viewBox="0 0 74 60" fill="none" id="Logo"><path d="M24.5456 20.6212C24.5456 20.4688 24.5456 18.2515 24.5456 18.2515H23.228C23.228 18.2515 23.228 20.4344 23.228 20.5033C23.228 20.9064 22.8544 21.1768 22.2251 21.1768C21.5663 21.1768 21.2074 20.9162 21.2074 20.4983C21.2074 20.4295 21.2074 18.2515 21.2074 18.2515H19.875C19.875 18.2515 19.875 20.3213 19.875 20.4983C19.875 21.6684 20.8337 22.165 22.171 22.165C23.6017 22.165 24.5456 21.6635 24.5456 20.6212Z" fill="#394149"/><path d="M28.9832 22.1107V21.0832H26.6332V18.2513H25.3008V22.1107H28.9832Z" fill="#394149"/><path d="M32.9426 19.2201V18.2515H28.3359V19.2201H29.9632V22.1109H31.3103V19.2201H32.9426Z" fill="#394149"/><path d="M34.7133 22.1109V18.2515H33.3613V22.1109H34.7133Z" fill="#394149"/><path d="M40.9171 22.1107V18.2513H39.2504L38.1983 20.567L37.1954 18.2513H35.4746V22.1107H36.7283V20.0262L37.6329 22.1107H38.7539L39.6683 20.0262V22.1107H40.9171Z" fill="#394149"/><path d="M43.0061 21.398H45.0907L45.43 22.1109H46.8508L44.9039 18.2515H43.3159L41.2559 22.1109H42.6472L43.0061 21.398ZM44.6728 20.5327H43.4388L43.9255 19.6035L44.073 19.2496L44.2107 19.5986L44.6728 20.5327Z" fill="#394149"/><path d="M51.0284 19.2201V18.2515H46.4219V19.2201H48.0492V22.1109H49.3964V19.2201H51.0284Z" fill="#394149"/><path d="M55.5084 22.1109V21.1522H52.7414V20.6507H55.3954V19.7117H52.7414V19.2151H55.4744V18.2515H51.4434V22.1109H55.5084Z" fill="#394149"/><path d="M29.924 24.1621H28.6506C28.6506 24.1621 27.8197 26.5908 27.8197 26.6498C27.8197 26.5908 27.0429 24.1621 27.0429 24.1621H25.6614C25.6614 24.1621 24.8895 26.5908 24.8895 26.6498C24.8895 26.5908 24.0537 24.1621 24.0537 24.1621H22.623L24.0685 28.0215H25.509C25.509 28.0215 26.2858 25.7157 26.2907 25.6518C26.2956 25.7157 27.0675 28.0215 27.0675 28.0215H28.5129L29.924 24.1621Z" fill="#394149"/><path d="M31.6665 28.0215V24.1621H30.3145V28.0215H31.6665Z" fill="#394149"/><path d="M36.9244 28.0218V24.1624H35.6658V26.2617L33.8123 24.1624H32.4258V28.0218H33.6943V25.8733L35.6068 28.0218H36.9244Z" fill="#394149"/><path d="M42.1919 28.0215V24.1621H40.9333V26.2614L39.0798 24.1621H37.6934V28.0215H38.9618V25.873L40.8743 28.0215H42.1919Z" fill="#394149"/><path d="M47.0249 28.0215V27.0628H44.257V26.5613H46.9118V25.6223H44.257V25.1257H46.9905V24.1621H42.959V28.0215H47.0249Z" fill="#394149"/><path d="M52.223 25.3374C52.223 24.9884 52.139 24.7376 51.962 24.5557C51.731 24.3099 51.333 24.1624 50.723 24.1624H47.6506V28.0218H48.9633V26.66H50.158L51.117 28.0218H52.582L51.417 26.4485C51.677 26.4092 51.889 26.2519 52.026 26.0651C52.149 25.893 52.223 25.6373 52.223 25.3374ZM50.945 25.4603C50.945 25.5243 50.935 25.6029 50.9 25.6619C50.851 25.7602 50.723 25.7996 50.512 25.7996H48.9682V25.0965H50.487C50.694 25.0965 50.832 25.1309 50.9 25.2588C50.935 25.3079 50.945 25.3866 50.945 25.4603Z" fill="#394149"/><path d="M25.1001 31.8188C25.1001 31.7557 25.1001 29.9329 25.1001 29.9329H24.6398C24.6398 29.9329 24.6398 31.7482 24.6398 31.7891C24.6398 32.2271 24.2277 32.4759 23.6337 32.4759C22.9321 32.4759 22.5868 32.2086 22.5868 31.7854C22.5868 31.7445 22.5868 29.9329 22.5868 29.9329H22.1228C22.1228 29.9329 22.1228 31.7 22.1228 31.7705C22.1228 32.5427 22.7242 32.8842 23.6152 32.8842C24.5358 32.8842 25.1001 32.5204 25.1001 31.8188Z" fill="#394149"/><path d="M28.404 32.8468V32.4199H26.3956V29.9326H25.9316V32.8468H28.404Z" fill="#394149"/><path d="M31.0396 30.3558V29.9326H27.9434V30.3558H29.2576V32.8468H29.7254V30.3558H31.0396Z" fill="#394149"/><path d="M34.3396 30.757C34.3396 30.5491 34.295 30.3969 34.2171 30.2744C34.0797 30.0702 33.8161 29.9329 33.3781 29.9329H31.4922V32.8471H31.9488V31.6183H33.2778L34.0908 32.8471H34.6254L33.7456 31.5403C33.9683 31.5144 34.1428 31.3881 34.2356 31.2248C34.3025 31.1134 34.3396 30.9501 34.3396 30.757ZM33.8792 30.7941C33.8792 30.8758 33.8607 30.9761 33.8273 31.0429C33.7679 31.1505 33.6305 31.2062 33.4078 31.2099H31.9525C31.9525 31.2025 31.9525 30.3487 31.9525 30.3487H33.3224C33.6008 30.3487 33.7493 30.4155 33.8273 30.5417C33.8607 30.6011 33.8792 30.7013 33.8792 30.7941Z" fill="#394149"/><path d="M35.6599 32.1266H37.4753L37.8465 32.8468H38.344L36.8664 29.9326H36.3207L34.7949 32.8468H35.2812L35.6599 32.1266ZM37.2822 31.7145H35.8604L36.4506 30.5971L36.5806 30.3261L36.7105 30.5971L37.2822 31.7145Z" fill="#394149"/><path d="M43.053 32.5687C43.1681 32.435 43.2201 32.2457 43.2201 32.0415C43.2201 31.8485 43.1644 31.6554 43.0493 31.5366C42.9342 31.4253 42.7486 31.3325 42.5444 31.3139C42.6632 31.2953 42.756 31.2211 42.8191 31.1431C42.9194 31.028 42.9787 30.8424 42.9787 30.6568C42.9787 30.46 42.9194 30.2818 42.7931 30.1593C42.6558 30.022 42.4219 29.9329 42.0952 29.9329H40.135V32.8471H42.24C42.6335 32.8471 42.9082 32.7469 43.053 32.5687ZM42.4998 30.7496C42.4998 30.8795 42.459 30.9946 42.3885 31.0614C42.3179 31.1394 42.1991 31.1728 42.0729 31.1728H40.5879V30.3338H41.9875C42.1583 30.3338 42.2882 30.3672 42.3773 30.4489C42.4553 30.5231 42.4998 30.6308 42.4998 30.7496ZM42.6483 32.2865C42.5555 32.3905 42.3959 32.4425 42.162 32.4425H40.5879V31.5775H42.1732C42.3885 31.5775 42.537 31.622 42.6261 31.7074C42.7077 31.7854 42.7412 31.8856 42.7412 32.0007C42.7412 32.1195 42.7152 32.2197 42.6483 32.2865Z" fill="#394149"/><path d="M46.5905 32.8468V32.4199H44.326V31.5883H46.5014V31.1651H44.326V30.3558H46.5645V29.9326H43.873V32.8468H46.5905Z" fill="#394149"/><path d="M50.2178 31.9859C50.2178 31.5107 49.9028 31.2657 49.1268 31.1766C48.9965 31.1581 48.7143 31.1284 48.5621 31.1098C47.8419 31.0244 47.6229 30.9279 47.6229 30.6792C47.6229 30.4379 47.8642 30.3005 48.5918 30.3005C49.1558 30.3005 49.4458 30.4119 49.5908 30.6123C49.6318 30.668 49.6538 30.7349 49.6648 30.7868H50.1618C50.1478 30.7014 50.1138 30.5826 50.0618 30.4861C49.8618 30.1409 49.4498 29.8921 48.5918 29.8921C47.5672 29.8884 47.144 30.2597 47.144 30.72C47.144 31.1803 47.4744 31.4142 48.332 31.5145C48.4805 31.533 48.744 31.5627 48.874 31.5776C49.5388 31.6592 49.7468 31.7595 49.7468 32.0379C49.7468 32.2941 49.5088 32.4797 48.7477 32.4797C48.1241 32.4797 47.7899 32.3683 47.6563 32.153C47.6155 32.0936 47.5895 32.0008 47.5858 31.9377H47.0957C47.1069 32.0713 47.144 32.2161 47.2108 32.3312C47.4039 32.6839 47.8568 32.8881 48.7329 32.8881C49.7798 32.8881 50.2178 32.5502 50.2178 31.9859Z" fill="#394149"/><path d="M53.5452 30.3558V29.9326H50.4492V30.3558H51.7632V32.8468H52.2312V30.3558H53.5452Z" fill="#394149"/><path d="M20.8098 35.3798C20.8098 35.0828 20.7504 34.8823 20.6501 34.7301C20.5091 34.511 20.2343 34.396 19.7554 34.396H17.9141V37.3102H18.3744V36.3598C18.3744 36.3598 19.6738 36.3598 19.7369 36.3598C20.1861 36.3561 20.4942 36.2522 20.6576 36.0146C20.7615 35.8698 20.8098 35.6619 20.8098 35.3798ZM20.342 35.3798C20.342 35.5282 20.3271 35.6396 20.2789 35.7139C20.1935 35.8512 20.019 35.9366 19.6589 35.9366C19.6255 35.9366 18.3744 35.9366 18.3744 35.9366V34.8118H19.6738C20.0116 34.8118 20.1861 34.8897 20.2789 35.0419C20.3234 35.1087 20.342 35.2313 20.342 35.3798Z" fill="#394149"/><path d="M24.1687 37.3102V36.8833H21.9041V36.0517H24.0796V35.6285H21.9041V34.8192H24.1427V34.396H21.4512V37.3102H24.1687Z" fill="#394149"/><path d="M27.7107 35.2201C27.7107 35.0122 27.6662 34.86 27.5882 34.7375C27.4508 34.5333 27.1873 34.396 26.7492 34.396H24.8633V37.3102H25.3199V36.0814H26.649L27.462 37.3102H27.9966L27.1167 36.0034C27.3395 35.9775 27.514 35.8512 27.6068 35.6879C27.6736 35.5765 27.7107 35.4132 27.7107 35.2201ZM27.2504 35.2572C27.2504 35.3389 27.2318 35.4392 27.1984 35.506C27.139 35.6136 27.0016 35.6693 26.7789 35.673H25.3236C25.3236 35.6656 25.3236 34.8118 25.3236 34.8118H26.6935C26.9719 34.8118 27.1204 34.8786 27.1984 35.0048C27.2318 35.0642 27.2504 35.1644 27.2504 35.2572Z" fill="#394149"/><path d="M31.1518 34.8192V34.396H28.5605V37.3102H29.0208V36.0703H31.0553V35.6359H29.0208V34.8192H31.1518Z" fill="#394149"/><path d="M33.2658 34.3442C32.6458 34.3442 32.2189 34.4964 31.9144 34.8157C31.6583 35.0644 31.5469 35.4097 31.5469 35.844C31.5469 36.3192 31.6917 36.6756 31.959 36.9169C32.2449 37.2028 32.6829 37.3512 33.2658 37.3512C33.8672 37.3512 34.3349 37.2028 34.6134 36.902C34.8547 36.657 34.9809 36.3081 34.9809 35.8403C34.9809 35.3874 34.8732 35.0421 34.6171 34.7971C34.3238 34.4927 33.8857 34.3442 33.2658 34.3442ZM33.2658 36.9355C32.8574 36.9355 32.5678 36.8464 32.3488 36.6682C32.1261 36.4863 32.0184 36.2078 32.0184 35.8514C32.0184 35.5173 32.1112 35.2389 32.2894 35.0718C32.4936 34.8788 32.8054 34.7637 33.2621 34.7637C33.7335 34.7637 34.0268 34.8751 34.2458 35.0681C34.4315 35.2315 34.5131 35.521 34.5131 35.8477C34.5131 36.1781 34.4278 36.4603 34.2384 36.631C34.0194 36.8352 33.7113 36.9355 33.2658 36.9355Z" fill="#394149"/><path d="M38.4626 35.2201C38.4626 35.0122 38.418 34.86 38.3401 34.7375C38.2027 34.5333 37.9391 34.396 37.5011 34.396H35.6152V37.3102H36.0718V36.0814H37.4008L38.2139 37.3102H38.7484L37.8686 36.0034C38.0913 35.9775 38.2658 35.8512 38.3586 35.6879C38.4255 35.5765 38.4626 35.4132 38.4626 35.2201ZM38.0022 35.2572C38.0022 35.3389 37.9837 35.4392 37.9503 35.506C37.8909 35.6136 37.7535 35.6693 37.5308 35.673H36.0755C36.0755 35.6656 36.0755 34.8118 36.0755 34.8118H37.4454C37.7238 34.8118 37.8723 34.8786 37.9503 35.0048C37.9837 35.0642 38.0022 35.1644 38.0022 35.2572Z" fill="#394149"/><path d="M42.9044 37.3102V34.396H42.303L41.1039 36.7942L39.927 34.396H39.3145V37.3102H39.7563V35.0679L40.8551 37.3102H41.3377L42.4626 35.0679V37.3102H42.9044Z" fill="#394149"/><path d="M44.2068 36.59H46.0222L46.3934 37.3102H46.8909L45.4133 34.396H44.8676L43.3418 37.3102H43.8281L44.2068 36.59ZM45.8291 36.1779H44.4073L44.9975 35.0605L45.1275 34.7895L45.2574 35.0605L45.8291 36.1779Z" fill="#394149"/><path d="M50.2353 37.3102V34.396H49.7933V36.6605L47.8633 34.396H47.3398V37.3102H47.789V35.0308L49.7343 37.3102H50.2353Z" fill="#394149"/><path d="M54.2403 36.2227H53.7573C53.7423 36.3563 53.6903 36.49 53.5973 36.5902C53.3973 36.8241 53.0783 36.9243 52.5883 36.9243C52.1763 36.9243 51.7343 36.8092 51.5223 36.5085C51.4113 36.3675 51.3403 36.1596 51.3403 35.8477C51.3403 35.5693 51.3893 35.3614 51.4963 35.2203C51.6743 34.9345 52.0493 34.786 52.5773 34.786C53.0893 34.786 53.4123 34.927 53.5833 35.1238C53.6793 35.2277 53.7353 35.3503 53.7533 35.495H54.2363C54.2213 35.3317 54.1693 35.1386 54.0583 34.9753C53.8203 34.6226 53.3823 34.3442 52.5803 34.3442C51.8163 34.3442 51.3593 34.5892 51.1063 34.9567C50.9433 35.1683 50.8613 35.4653 50.8613 35.844C50.8613 36.2672 50.9623 36.5791 51.1363 36.7981C51.3893 37.1434 51.8753 37.3512 52.6103 37.3512C53.3643 37.3512 53.8133 37.1248 54.0363 36.7647C54.1623 36.5902 54.2253 36.3823 54.2403 36.2227Z" fill="#394149"/><path d="M57.5637 37.3102V36.8833H55.2987V36.0517H57.4747V35.6285H55.2987V34.8192H57.5377V34.396H54.8457V37.3102H57.5637Z" fill="#394149"/><path d="M23.6119 40.2054L24.1671 41.9142H25.9638L24.5103 42.9703L25.0655 44.679L23.6119 43.623L22.1583 44.679L22.7136 42.9703L21.26 41.9142H23.0567L23.6119 40.2054Z" fill="#394149"/><path d="M30.021 40.2056L30.5875 41.9143H32.4209L30.9377 42.9704L31.5042 44.6792L30.021 43.6231L28.5378 44.6792L29.1043 42.9704L27.6211 41.9143H29.4545L30.021 40.2056Z" fill="#394149"/><path d="M36.3804 40.2054L36.947 41.9141H38.7803L37.2971 42.9702L37.8637 44.679L36.3804 43.6229L34.8972 44.679L35.4637 42.9702L33.9805 41.9141H35.8139L36.3804 40.2054Z" fill="#394149"/><path d="M42.7397 40.2056L43.3062 41.9143H45.1396L43.6564 42.9704L44.2229 44.6792L42.7397 43.6231L41.2565 44.6792L41.823 42.9704L40.3398 41.9143H42.1732L42.7397 40.2056Z" fill="#394149"/><path d="M49.1491 40.2054L49.7041 41.9141H51.5011L50.0471 42.9702L50.6021 44.679L49.1491 43.6229L47.6954 44.679L48.2507 42.9702L46.7971 41.9141H48.5938L49.1491 40.2054Z" fill="#394149"/><path d="M26.7255 11.376L27.1453 12.668H28.5038L27.4048 13.4665L27.8246 14.7584L26.7255 13.96L25.6265 14.7584L26.0463 13.4665L24.9473 12.668H26.3058L26.7255 11.376Z" fill="#394149"/><path d="M31.5724 11.3744L32.0008 12.6664H33.3869L32.2655 13.4649L32.6938 14.7568L31.5724 13.9583L30.4509 14.7568L30.8793 13.4649L29.7578 12.6664H31.144L31.5724 11.3744Z" fill="#394149"/><path d="M36.381 11.3745L36.8093 12.6665H38.1955L37.0741 13.465L37.5024 14.7569L36.381 13.9584L35.2595 14.7569L35.6879 13.465L34.5664 12.6665H35.9526L36.381 11.3745Z" fill="#394149"/><path d="M41.1876 11.3745L41.6159 12.6665H43.0021L41.8807 13.465L42.309 14.7569L41.1876 13.9584L40.0661 14.7569L40.4945 13.465L39.373 12.6665H40.7592L41.1876 11.3745Z" fill="#394149"/><path d="M46.0341 11.3744L46.4539 12.6664H47.8124L46.7134 13.4649L47.1332 14.7568L46.0341 13.9583L44.9351 14.7568L45.3549 13.4649L44.2559 12.6664H45.6143L46.0341 11.3744Z" fill="#394149"/><path fill-rule="evenodd" clip-rule="evenodd" d="M7.37609 34.6303C5.52349 23.0394 10.9303 11.5716 21.7544 6.64697L21.8543 6.86657C11.1391 11.7416 5.77699 23.0972 7.61429 34.5922C9.64699 47.3095 19.9064 54.9365 32.4699 55.3042L32.4628 55.5454C19.8014 55.1748 9.42969 47.4788 7.37609 34.6303Z" fill="#394149"/><path d="M19.4083 9.60504C17.408 9.65064 15.0669 10.7786 13.6855 12.417C14.7933 13.4457 16.5757 13.0654 17.8584 12.855C19.6891 12.5548 21.6359 11.9732 23.3634 11.1499C22.6531 9.63794 20.7397 9.57474 19.4083 9.60504Z" fill="#394149"/><path d="M17.8346 7.13766C16.6498 8.98326 15.2378 10.8176 13.7012 12.4329C12.4156 11.2261 13.1916 9.21776 13.7163 7.96886C14.6668 5.70586 16.9457 3.75436 19.3282 2.75586C19.9821 4.24356 18.5618 6.00486 17.8346 7.13766Z" fill="#394149"/><path d="M13.6187 14.7806C11.7457 15.4464 10.1362 17.3206 9.32812 19.2022C10.6749 19.8284 12.206 18.9241 13.3261 18.322C14.8641 17.4952 16.4332 16.3544 17.6678 15.0342C16.5523 13.8572 14.8585 14.34 13.6187 14.7806Z" fill="#394149"/><path d="M11.3481 12.9366C10.9381 15.0416 10.2507 17.2234 9.34792 19.212C7.77212 18.4688 7.83212 16.3402 7.89962 14.9856C8.01482 12.6735 9.30832 10.0369 11.1092 8.36133C12.2117 9.54333 11.6093 11.5957 11.3481 12.9366Z" fill="#394149"/><path d="M10.0149 21.4624C8.45416 22.6936 7.50816 24.9753 7.28906 27.0128C8.76546 27.1823 9.94556 25.8387 10.8237 24.9169C12.0192 23.6618 13.1509 22.0876 13.8696 20.4407C12.4622 19.6729 11.0315 20.6604 10.0149 21.4624Z" fill="#394149"/><path d="M7.31151 20.4231C7.58981 22.5488 7.59041 24.8485 7.31201 27.0157C5.59501 26.8048 5.02551 24.7432 4.68911 23.4499C4.10831 21.2175 4.49771 18.3339 5.62911 16.1637C7.04301 16.9464 7.13371 19.0644 7.31151 20.4231Z" fill="#394149"/><path d="M8.79147 28.7562C7.55647 30.5653 7.12217 33.4004 7.67757 35.6792C9.30957 35.2928 10.1186 33.4451 10.7682 32.1402C11.6315 30.4059 12.3612 28.3826 12.6224 26.3975C10.8523 26.0291 9.60497 27.5644 8.79147 28.7562Z" fill="#394149"/><path d="M5.54864 28.5731C6.51084 30.8008 7.26174 33.2527 7.70114 35.6735C5.82944 36.0756 4.48234 34.1102 3.69974 32.807C2.30644 30.4872 1.90054 27.2713 2.41094 24.4961C4.12404 24.8396 4.96234 27.2161 5.54864 28.5731Z" fill="#394149"/><path d="M9.6554 36.6269C8.9923 38.8215 9.4532 41.805 10.7958 43.8682C12.2712 42.9076 12.4754 40.7934 12.6845 39.2775C12.9602 37.2771 13.09 35.0611 12.7475 32.9868C10.8604 33.2277 10.0983 35.1608 9.6554 36.6269Z" fill="#394149"/><path d="M6.3752 37.5666C8.0308 39.4663 9.558 41.6323 10.8175 43.8542C9.1093 44.9206 7.1048 43.4637 5.8891 42.4327C3.7324 40.6038 2.332 37.4953 2 34.5647C3.7948 34.3235 5.3765 36.4205 6.3752 37.5666Z" fill="#394149"/><path d="M13.1341 44.0967C13.2764 46.6512 14.9395 49.3317 17.1539 50.8574C18.2233 49.3933 17.553 47.15 17.1882 45.5841C16.6971 43.4758 16.0174 41.2804 15.0073 39.3324C13.2459 40.2632 13.0404 42.4144 13.1341 44.0967Z" fill="#394149"/><path d="M10.1568 46.2543C12.5559 47.5874 14.9481 49.1605 17.1723 50.8344C15.8403 52.5884 13.1779 51.889 11.5275 51.3252C8.61907 50.3317 6.02618 47.7127 4.67188 44.803C6.38898 43.9185 8.73957 45.4668 10.1568 46.2543Z" fill="#394149"/><path d="M19.9668 50.3374C21.4067 52.9652 24.688 54.6795 27.778 55.0922C28.1106 53.1818 26.0435 51.2903 24.9171 50.0529C23.3134 48.2912 21.6423 46.463 19.7687 44.9398C18.365 46.5696 19.1071 48.7685 19.9668 50.3374Z" fill="#394149"/><path d="M17.9111 53.6677C21.1842 54.008 24.5128 54.4979 27.784 55.0628C27.4717 57.4732 23.6466 57.8622 21.9101 58.0045C18.3496 58.2963 14.3888 56.8651 11.6309 54.4557C13.0007 52.8439 16.1676 53.4865 17.9111 53.6677Z" fill="#394149"/><path d="M24.2142 4.6241C22.0167 5.251 19.4445 6.4403 18.1738 8.6357C20.4803 8.3843 22.7472 7.5636 24.9641 6.9383C27.4473 6.2378 30.062 5.7139 32.4662 4.747C29.8332 3.6936 26.7294 3.9065 24.2142 4.6241Z" fill="#394149"/><path fill-rule="evenodd" clip-rule="evenodd" d="M66.7284 34.5922C68.5654 23.0972 63.2034 11.7418 52.4884 6.86657L52.5884 6.64697C63.4124 11.5717 68.8195 23.0394 66.9664 34.6303C64.9135 47.4788 54.5414 55.1748 41.88 55.5454L41.873 55.3042C54.4364 54.9365 64.6954 47.3095 66.7284 34.5922Z" fill="#394149"/><path d="M54.9355 9.60504C56.9355 9.65064 59.2765 10.7786 60.6585 12.417C59.5505 13.4457 57.7675 13.0654 56.4855 12.855C54.6545 12.5548 52.7075 11.9732 50.9805 11.1499C51.6905 9.63794 53.6035 9.57474 54.9355 9.60504Z" fill="#394149"/><path d="M56.5073 7.13766C57.6923 8.98326 59.1043 10.8176 60.6403 12.4329C61.9263 11.2261 61.1503 9.21776 60.6253 7.96886C59.6753 5.70586 57.3963 3.75436 55.0133 2.75586C54.3593 4.24356 55.7803 6.00486 56.5073 7.13766Z" fill="#394149"/><path d="M60.7248 14.7806C62.5978 15.4464 64.2068 17.3206 65.0148 19.2022C63.6678 19.8284 62.1368 18.9241 61.0168 18.322C59.4788 17.4952 57.9098 16.3544 56.6758 15.0342C57.7908 13.8572 59.4848 14.34 60.7248 14.7806Z" fill="#394149"/><path d="M62.9943 12.9366C63.4043 15.0416 64.0913 17.2234 64.9943 19.212C66.5703 18.4688 66.5103 16.3402 66.4423 14.9856C66.3273 12.6735 65.0343 10.0369 63.2333 8.36133C62.1303 9.54333 62.7333 11.5957 62.9943 12.9366Z" fill="#394149"/><path d="M64.3267 21.4624C65.8877 22.6936 66.8337 24.9753 67.0527 27.0128C65.5767 27.1823 64.3967 25.8387 63.5187 24.9169C62.3227 23.6618 61.1907 22.0876 60.4727 20.4407C61.8797 19.6729 63.3107 20.6604 64.3267 21.4624Z" fill="#394149"/><path d="M67.0316 20.423C66.7526 22.5485 66.7526 24.8484 67.0306 27.0156C68.7476 26.8047 69.3176 24.7431 69.6536 23.4498C70.2346 21.2174 69.8446 18.3338 68.7136 16.1636C67.2996 16.9463 67.2086 19.0643 67.0316 20.423Z" fill="#394149"/><path d="M65.5517 28.7562C66.7867 30.5653 67.2207 33.4004 66.6657 35.6792C65.0337 35.2928 64.2247 33.4452 63.5747 32.1402C62.7117 30.4059 61.9817 28.3826 61.7207 26.3975C63.4907 26.0291 64.7387 27.5644 65.5517 28.7562Z" fill="#394149"/><path d="M68.7946 28.5731C67.8326 30.8008 67.0816 33.2527 66.6426 35.6735C68.5136 36.0756 69.8606 34.1102 70.6436 32.807C72.0366 30.4872 72.4426 27.2713 71.9326 24.4961C70.2196 24.8396 69.3806 27.2161 68.7946 28.5731Z" fill="#394149"/><path d="M64.688 36.6272C65.351 38.8218 64.891 41.8053 63.548 43.8685C62.073 42.9079 61.868 40.7937 61.659 39.2778C61.384 37.2774 61.254 35.0614 61.596 32.9871C63.483 33.228 64.245 35.1611 64.688 36.6272Z" fill="#394149"/><path d="M67.9674 37.5664C66.3124 39.4662 64.7854 41.6321 63.5254 43.854C65.2334 44.9204 67.2384 43.4635 68.4544 42.4325C70.6104 40.6036 72.0114 37.4951 72.3434 34.5645C70.5484 34.3233 68.9664 36.4203 67.9674 37.5664Z" fill="#394149"/><path d="M61.208 44.0967C61.066 46.6512 59.403 49.3317 57.189 50.8574C56.119 49.3933 56.79 47.1501 57.154 45.5841C57.645 43.4758 58.325 41.2804 59.335 39.3324C61.097 40.2632 61.302 42.4144 61.208 44.0967Z" fill="#394149"/><path d="M64.1871 46.2545C61.7881 47.5876 59.3961 49.1607 57.1721 50.8346C58.5041 52.5886 61.1661 51.8892 62.8161 51.3254C65.7251 50.3319 68.3181 47.7129 69.6721 44.8032C67.9551 43.9187 65.6041 45.467 64.1871 46.2545Z" fill="#394149"/><path d="M54.3765 50.3375C52.9365 52.9653 49.6555 54.6796 46.5651 55.0923C46.2325 53.1819 48.2995 51.2904 49.4265 50.053C51.0295 48.2913 52.7005 46.4631 54.5745 44.9399C55.9785 46.5697 55.2355 48.7686 54.3765 50.3375Z" fill="#394149"/><path d="M56.4314 53.6677C53.1584 54.008 49.8304 54.4979 46.5586 55.0628C46.871 57.4732 50.6964 57.8622 52.4324 58.0045C55.9934 58.2963 59.9544 56.8651 62.7114 54.4557C61.3424 52.8439 58.1754 53.4865 56.4314 53.6677Z" fill="#394149"/><path d="M50.1271 4.6241C52.3241 5.251 54.8971 6.4403 56.1671 8.6357C53.8611 8.3843 51.5941 7.5636 49.3771 6.9383C46.8939 6.2378 44.2792 5.7139 41.875 4.747C44.5081 3.6936 47.6118 3.9065 50.1271 4.6241Z" fill="#394149"/><path d="M38.5997 3.4879L37.4722 1L36.3659 3.4416L33.793 1.8464L35.4463 5.3207H39.5579L41.1515 1.8464L38.5997 3.4879Z" fill="#394149"/><path d="M39.5322 5.8606H35.4141V6.4683H39.5322V5.8606Z" fill="#394149"/><path d="M37.7678 52.8716L38.4314 54.9138H40.5787L38.8415 56.1759L39.505 58.2181L37.7678 56.956L36.0306 58.2181L36.6942 56.1759L34.957 54.9138H37.1043L37.7678 52.8716Z" fill="#394149"/></svg>