
      <svg data-logo="logo" xmlns="http://www.w3.org/2000/svg" viewBox="0 0 133.31999969482422 56.72" width="133.31999969482422" height="56.72">
        <g id="logogram" transform="
    translate(0, 8.36)
    rotate(0 21 20)
    
  "><path d="M28.7089 33.1053L1.9434 14.6424C-0.768963 12.7715 0.15306 8.87601 3.53531 7.95996L31.9823 0.239132C32.5849 0.0216955 33.2306 -0.0488885 33.866 0.0332432C34.5013 0.115375 35.1079 0.34785 35.6355 0.711378C36.1629 1.07491 36.5961 1.559 36.899 2.12348C37.2018 2.68795 37.3658 3.31654 37.3771 3.95706L35.6912 30.1393C35.4913 33.247 31.4213 34.9762 28.7089 33.1053Z" fill="#E9327C"/><path d="M20.2197 37.6632L4.45132 6.82618C4.09087 6.12072 3.93226 5.32941 3.99297 4.53953C4.05367 3.74965 4.33135 2.99187 4.79536 2.34978C5.25939 1.70769 5.89172 1.20622 6.62264 0.900668C7.35356 0.595117 8.15466 0.497365 8.93761 0.618198L38.1604 5.12834C38.8331 5.23219 39.4717 5.49425 40.0236 5.89298C40.5753 6.29172 41.0245 6.81572 41.3344 7.42191C41.6441 8.0281 41.8057 8.69917 41.8055 9.37994C41.8054 10.0607 41.6437 10.7317 41.3338 11.3378L27.8719 37.6647C27.5104 38.3681 26.962 38.9583 26.2869 39.3703C25.6118 39.7823 24.8363 40.0002 24.0454 40C23.2545 39.9999 22.479 39.7817 21.804 39.3695C21.1291 38.9571 20.5809 38.3668 20.2197 37.6632Z" fill="#1DACE3"/><path d="M37.3055 4.9955L22.7382 2.74713L4.85269 7.60342L11.9917 21.5695L28.7089 33.1053C29.0777 33.357 29.4834 33.5497 29.9114 33.6767L36.2612 21.2592L37.3055 4.9955Z" fill="#001A49"/></g>
        <g id="logotype" transform="translate(48, 0.4999999999999991)"><path fill="#111111" d="M8.56 44.32L8.56 16.64L14.08 16.64L14.08 18.56Q14.60 17.28 16.12 16.76Q17.64 16.24 20.64 16.24L20.64 16.24Q23.16 16.24 24.70 16.64Q26.24 17.04 27.04 17.92L27.04 17.92Q27.80 18.80 28.08 19.86Q28.36 20.92 28.36 22.76L28.36 22.76L28.36 29.12Q28.36 32 27.52 33.56Q26.68 35.12 24.94 35.76Q23.20 36.40 20.20 36.40L20.20 36.40Q17.32 36.40 16.04 35.92Q14.76 35.44 14.40 34.04L14.40 34.04L14.40 44.32L8.56 44.32ZM18.40 32.76Q20.12 32.76 21 32.52Q21.88 32.28 22.20 31.68Q22.52 31.08 22.52 29.88L22.52 29.88L22.52 22.72Q22.52 21.40 22.24 20.82Q21.96 20.24 21.12 20.04Q20.28 19.84 18.36 19.84L18.36 19.84Q16.72 19.84 15.86 20.12Q15 20.40 14.70 21Q14.40 21.60 14.40 22.72L14.40 22.72L14.40 29.88Q14.40 31.08 14.70 31.68Q15 32.28 15.84 32.52Q16.68 32.76 18.40 32.76L18.40 32.76ZM32.96 36L32.96 8L38.80 8L38.80 36L32.96 36ZM49.44 36.40Q46.72 36.40 45.38 35.90Q44.04 35.40 43.50 34.10Q42.96 32.80 42.96 30.20L42.96 30.20Q42.96 27.88 43.54 26.56Q44.12 25.24 45.42 24.66Q46.72 24.08 49 24.08L49 24.08L55.56 24.08L55.56 22.76Q55.56 21.52 55.22 20.92Q54.88 20.32 53.98 20.08Q53.08 19.84 51.28 19.84L51.28 19.84Q48.80 19.84 44.48 20.32L44.48 20.32L44.48 16.64Q47.64 16.24 51.88 16.24L51.88 16.24Q55.60 16.24 57.62 16.80Q59.64 17.36 60.52 18.72Q61.40 20.08 61.40 22.68L61.40 22.68L61.40 36L55.68 36L55.68 34.24Q55 35.40 53.84 35.88L53.84 35.88Q52.68 36.40 49.44 36.40L49.44 36.40ZM51.72 32.76Q53.48 32.76 54.24 32.64L54.24 32.64Q54.80 32.56 55.02 32.40Q55.24 32.24 55.40 31.88L55.40 31.88Q55.56 31.60 55.56 31.04L55.56 31.04L55.56 27.28L51.56 27.28Q50.20 27.28 49.64 27.46Q49.08 27.64 48.88 28.18Q48.68 28.72 48.68 30.08L48.68 30.08Q48.68 31.40 48.88 31.92Q49.08 32.44 49.66 32.60Q50.24 32.76 51.72 32.76L51.72 32.76ZM68.36 44.32L71.88 35.84L64.16 16.64L70.52 16.64L74.88 30.32L78.84 16.64L84.88 16.64L74.28 44.32L68.36 44.32Z"/></g>
        
      </svg>
    